<svg width="24" height="24" viewBox="0 0 24 24" fill="none" xmlns="http://www.w3.org/2000/svg">
<path d="M6 14C5.60444 14 5.21776 13.8827 4.88886 13.6629C4.55996 13.4432 4.30362 13.1308 4.15224 12.7654C4.00087 12.3999 3.96126 11.9978 4.03843 11.6098C4.1156 11.2219 4.30608 10.8655 4.58579 10.5858C4.86549 10.3061 5.22186 10.1156 5.60982 10.0384C5.99778 9.96126 6.39992 10.0009 6.76537 10.1522C7.13082 10.3036 7.44318 10.56 7.66294 10.8889C7.8827 11.2178 8 11.6044 8 12C7.99842 12.5299 7.7872 13.0377 7.41247 13.4125C7.03774 13.7872 6.52995 13.9984 6 14ZM18 14C17.6044 14 17.2178 13.8827 16.8889 13.6629C16.56 13.4432 16.3036 13.1308 16.1522 12.7654C16.0009 12.3999 15.9613 11.9978 16.0384 11.6098C16.1156 11.2219 16.3061 10.8655 16.5858 10.5858C16.8655 10.3061 17.2219 10.1156 17.6098 10.0384C17.9978 9.96126 18.3999 10.0009 18.7654 10.1522C19.1308 10.3036 19.4432 10.56 19.6629 10.8889C19.8827 11.2178 20 11.6044 20 12C19.9984 12.5299 19.7872 13.0377 19.4125 13.4125C19.0377 13.7872 18.5299 13.9984 18 14ZM12 14C11.6044 14 11.2178 13.8827 10.8889 13.6629C10.56 13.4432 10.3036 13.1308 10.1522 12.7654C10.0009 12.3999 9.96126 11.9978 10.0384 11.6098C10.1156 11.2219 10.3061 10.8655 10.5858 10.5858C10.8655 10.3061 11.2219 10.1156 11.6098 10.0384C11.9978 9.96126 12.3999 10.0009 12.7654 10.1522C13.1308 10.3036 13.4432 10.56 13.6629 10.8889C13.8827 11.2178 14 11.6044 14 12C13.9984 12.5299 13.7872 13.0377 13.4125 13.4125C13.0377 13.7872 12.5299 13.9984 12 14Z" fill="#23262A"/>
</svg>
