<svg width="56" height="56" viewBox="0 0 56 56" fill="none" xmlns="http://www.w3.org/2000/svg">
<g clip-path="url(#clip0_949_67887)">
<path d="M29.2112 7.7937H23.8186C23.5895 7.7937 23.4038 7.97942 23.4038 8.20852C23.4038 8.43761 23.5895 8.62333 23.8186 8.62333H29.2112C29.4403 8.62333 29.626 8.43761 29.626 8.20852C29.626 7.97942 29.4403 7.7937 29.2112 7.7937Z" fill="#333333"/>
<path d="M27.2407 46.5789H25.7889C25.3307 46.5789 24.9592 46.9503 24.9592 47.4085C24.9592 47.8667 25.3307 48.2381 25.7889 48.2381H27.2407C27.6989 48.2381 28.0703 47.8667 28.0703 47.4085C28.0703 46.9503 27.6989 46.5789 27.2407 46.5789Z" fill="#333333"/>
<path d="M38.922 38.5859V43.1239H14.0953V12.0502H38.9136V15.7835H40.5729V7.14705C40.5729 6.35164 40.257 5.58881 39.6945 5.02637C39.1321 4.46392 38.3692 4.14795 37.5738 4.14795H15.431C14.6363 4.14905 13.8746 4.46551 13.313 5.02784C12.7515 5.59016 12.436 6.35236 12.436 7.14705V48.8525C12.436 49.6472 12.7515 50.4094 13.313 50.9718C13.8746 51.5341 14.6363 51.8506 15.431 51.8517H37.5738C38.3692 51.8517 39.1321 51.5357 39.6945 50.9732C40.257 50.4108 40.5729 49.6479 40.5729 48.8525V38.5859H38.922ZM14.0953 7.14705C14.0953 6.79242 14.2359 6.45224 14.4863 6.20109C14.7366 5.94993 15.0764 5.80831 15.431 5.80721H37.5738C37.9292 5.80721 38.2699 5.94837 38.5212 6.19964C38.7725 6.45091 38.9136 6.7917 38.9136 7.14705V10.3909H14.0953V7.14705ZM38.9136 48.8525C38.9136 49.2079 38.7725 49.5487 38.5212 49.8C38.2699 50.0512 37.9292 50.1924 37.5738 50.1924H15.431C15.0764 50.1913 14.7366 50.0496 14.4863 49.7985C14.2359 49.5473 14.0953 49.2072 14.0953 48.8525V44.7832H38.9136V48.8525Z" fill="#333333"/>
<g clip-path="url(#clip1_949_67887)">
<path d="M46.1827 21.5696C46.1827 20.5049 45.3116 19.6338 44.2469 19.6338H28.7605C27.6958 19.6338 26.8247 20.5049 26.8247 21.5696V33.1844C26.8247 34.2491 27.6958 35.1202 28.7605 35.1202H44.2469C45.3116 35.1202 46.1827 34.2491 46.1827 33.1844V21.5696ZM44.2469 21.5696L36.5037 26.4091L32.6321 23.9893L28.7605 21.5696H44.2469ZM44.2469 33.1844H28.7605V23.5054L36.5037 28.3449L44.2469 23.5054V33.1844Z" fill="#323232"/>
<path d="M36.5037 26.4091L44.2469 21.5696H28.7605L32.6321 23.9893L36.5037 26.4091Z" fill="#F08080"/>
</g>
</g>
<defs>
<clipPath id="clip0_949_67887">
<rect width="36.0889" height="47.7037" fill="white" transform="translate(12.0295 4.14819)"/>
</clipPath>
<clipPath id="clip1_949_67887">
<rect width="23.2296" height="23.2296" fill="white" transform="translate(24.8889 15.7627)"/>
</clipPath>
</defs>
</svg>
