<svg width="572" height="305" viewBox="0 0 572 305" fill="none" xmlns="http://www.w3.org/2000/svg">
<path opacity="0.3" d="M79.8503 296.662C78.2992 295.432 78.1474 293.333 78.1253 291.466C77.8982 272.372 79.3706 253.262 82.5238 234.381C83.2872 229.811 84.1581 225.221 85.9496 220.891C89.4563 212.412 96.2536 205.442 102.897 198.671C114.194 187.157 125.638 175.36 132.424 161.242C138.019 149.601 140.274 136.708 147.016 125.576C155.31 111.881 170.401 101.714 187.279 98.4486C202.982 95.4111 219.473 98.181 234.468 103.38C246.675 107.612 258.161 113.423 269.026 120.001C276.423 124.479 283.631 129.36 291.851 132.448C301.296 135.995 311.629 137.008 321.55 139.253C360.771 148.135 391.846 201.653 396.421 228.308C400.081 249.631 400.33 266.588 388.367 282.851C380.069 292.278 372.88 296.663 369.612 296.663L79.8503 296.662Z" fill="#D8E7FC"/>
<path opacity="0.3" d="M3.09003 305C0.347595 304.894 0.0792847 304.711 0.0401001 304.549C-0.36145 302.893 2.24182 301.235 7.81677 299.597C9.16644 299.201 10.7061 298.803 13.8736 298.427C20.0734 297.692 32.0911 297.087 43.8364 296.5C63.809 295.501 84.0421 294.478 96.0402 293.253C105.932 292.243 109.919 291.125 121.839 290.159C136.503 288.971 163.184 288.089 193.024 287.806C220.787 287.542 249.943 287.782 276.454 288.233C298.037 288.601 318.344 289.105 337.553 289.675C350.63 290.064 363.375 290.487 377.908 290.755C394.607 291.063 412.875 291.151 430.415 291.345C499.759 292.116 554.699 296.758 562.787 299.071C569.258 300.92 569.699 302.391 548.549 303.802C533.878 304.62 521.168 305 515.39 305L3.09003 305Z" fill="#D8E7FC"/>
<path opacity="0.3" d="M465.522 303.902H505.607C505.522 303.902 576.048 283.911 571.41 219.351C570.45 212.043 569.355 204.704 567.101 197.782C562.69 184.225 554.139 173.081 545.782 162.255C531.571 143.846 517.175 124.985 508.638 102.411C501.6 83.7996 498.764 63.1859 490.283 45.3868C479.849 23.4908 460.865 7.23515 439.634 2.01481C419.88 -2.84169 399.135 1.58686 380.272 9.89902C364.916 16.6661 350.467 25.9559 336.8 36.4735C327.495 43.6333 318.427 51.4373 308.087 56.374C296.205 62.0463 283.207 63.6651 270.727 67.2554C221.388 81.4563 179.611 132.394 177.365 190.829C177.366 255.478 209.544 289.708 220.197 303.902H232.5H349.011H465.522Z" fill="#D8E7FC"/>
<path d="M244.108 36.5034H498.61V199.982C498.61 205.426 494.196 209.84 488.752 209.84H253.965C248.521 209.84 244.108 205.426 244.108 199.982V36.5034Z" fill="white" stroke="#E9F2FF" stroke-width="0.616089"/>
<path d="M325.999 112.291C330.667 102.477 326.495 90.7369 316.681 86.0691C306.867 81.4013 295.127 85.5731 290.46 95.387C285.792 105.201 289.964 116.941 299.777 121.608C309.591 126.276 321.331 122.104 325.999 112.291Z" fill="white" fill-opacity="0.5"/>
<path d="M315.485 124.257C312.744 116.542 316.775 108.065 324.491 105.324L328.387 103.939C329.851 117.037 315.485 124.257 315.485 124.257Z" fill="#D8E7FC"/>
<path d="M322.954 92.2759L289.51 104.16C288.879 104.385 288.215 104.144 288.03 103.623L287.616 102.458C285.251 95.801 293.628 87.7494 301.516 84.9466C309.36 82.1592 321.079 83.3734 323.348 89.7603L323.762 90.9253C323.947 91.4464 323.586 92.0513 322.954 92.2759Z" fill="#FBF7FD"/>
<path d="M285.8 102.943C286.293 90.574 296.757 80.914 309.125 81.4067C321.493 81.9005 331.153 92.3637 330.66 104.732C330.167 117.1 319.703 126.76 307.335 126.268C294.967 125.774 285.307 115.311 285.8 102.943ZM291.604 103.174C291.239 112.342 298.4 120.098 307.567 120.463C316.735 120.828 324.491 113.668 324.856 104.501C325.221 95.3323 318.06 87.5764 308.893 87.2109C299.725 86.8459 291.969 94.0056 291.604 103.174Z" fill="#23262A"/>
<path d="M349.43 151.035C350.914 149.665 351.006 147.352 349.637 145.868L324.166 118.28C323.306 117.35 321.855 117.292 320.925 118.151L318.923 119.999C317.993 120.859 317.935 122.31 318.795 123.241L344.266 150.829C345.635 152.312 347.948 152.405 349.432 151.035L349.43 151.035Z" fill="#23262A"/>
<path d="M310.316 117.058C310.305 117.061 310.294 117.066 310.282 117.066C303.938 118.057 297.772 114.378 295.619 108.32C293.148 101.366 296.795 93.698 303.749 91.227C309.714 89.1073 316.415 91.4953 319.682 96.9067C319.735 96.9943 319.706 97.1086 319.619 97.1621C319.531 97.2145 319.417 97.1865 319.363 97.0989C316.187 91.8395 309.672 89.5172 303.874 91.5775C297.113 93.98 293.567 101.434 295.97 108.195C298.063 114.086 304.059 117.663 310.225 116.699C310.326 116.683 310.422 116.753 310.438 116.854C310.452 116.944 310.4 117.028 310.317 117.057L310.316 117.058Z" fill="#23262A"/>
<path d="M316.515 114.34C316.443 114.365 316.358 114.344 316.307 114.281C316.244 114.201 316.257 114.083 316.337 114.019C319.498 111.502 321.331 107.587 321.24 103.547C321.237 103.444 321.318 103.359 321.422 103.358C321.525 103.355 321.61 103.437 321.612 103.539C321.705 107.693 319.82 111.721 316.568 114.31C316.552 114.324 316.533 114.333 316.514 114.34L316.515 114.34Z" fill="#23262A"/>
<path d="M243.52 278.609L257.246 282.47C257.246 282.47 278.83 217.892 278.83 218.736C278.83 219.581 278.57 282.47 278.57 282.47L294.823 280.52L298.94 201.107L259.536 208.357L243.519 278.609H243.52Z" fill="#E00000"/>
<path d="M281.943 282.066V288.061H288.452L289.362 281.169L281.943 282.066Z" fill="#F6C4AA"/>
<path d="M281.943 288.062V296.253H300.024C300.024 296.253 300.024 293.783 293.783 291.572C288.393 289.664 288.452 288.062 288.452 288.062H281.943Z" fill="white"/>
<path d="M286.917 292.177C287.615 291.478 287.615 290.346 286.917 289.648C286.218 288.949 285.086 288.949 284.388 289.648C283.689 290.346 283.689 291.478 284.388 292.177C285.086 292.875 286.218 292.875 286.917 292.177Z" fill="#D8E7FC"/>
<path d="M300.024 296.252H281.943V298.289H300.024V296.252Z" fill="#23262A"/>
<path d="M288.452 288.247C288.398 288.247 288.345 288.224 288.309 288.18C288.261 288.122 288.252 288.04 288.288 287.973C288.349 287.858 289.806 285.153 291.071 284.965C291.377 284.919 291.648 285.013 291.878 285.243C292.157 285.522 292.164 285.802 292.119 285.987C291.849 287.116 288.851 288.126 288.51 288.237C288.492 288.244 288.472 288.246 288.452 288.246V288.247ZM291.217 285.326C291.188 285.326 291.157 285.328 291.126 285.333C290.372 285.446 289.39 286.839 288.861 287.718C289.169 287.603 289.594 287.434 290.023 287.23C291.412 286.575 291.705 286.116 291.757 285.9C291.778 285.812 291.785 285.677 291.614 285.504C291.493 285.383 291.365 285.325 291.217 285.325V285.326Z" fill="#23262A"/>
<path d="M291.772 290.372C290.594 290.372 288.563 288.429 288.322 288.194C288.268 288.14 288.252 288.06 288.28 287.99C288.309 287.921 288.377 287.875 288.453 287.875H288.454C288.584 287.875 291.657 287.911 292.41 288.945C292.592 289.194 292.635 289.478 292.537 289.788C292.42 290.165 292.174 290.301 291.989 290.348C291.921 290.365 291.848 290.374 291.772 290.374V290.372ZM288.946 288.264C289.192 288.484 289.538 288.781 289.917 289.068C291.142 289.994 291.685 290.041 291.899 289.987C291.986 289.965 292.111 289.909 292.183 289.677C292.245 289.48 292.221 289.317 292.11 289.163C291.661 288.547 289.97 288.323 288.946 288.264Z" fill="#23262A"/>
<path d="M285.039 296.438C284.956 296.438 284.882 296.382 284.859 296.299C284.207 293.815 281.893 292.792 281.869 292.782C281.775 292.741 281.732 292.632 281.773 292.538C281.814 292.444 281.923 292.4 282.017 292.441C282.119 292.485 284.521 293.547 285.219 296.206C285.245 296.305 285.185 296.407 285.086 296.433C285.07 296.437 285.054 296.439 285.039 296.439V296.438Z" fill="#23262A"/>
<path d="M294.871 296.438C294.768 296.438 294.685 296.355 294.685 296.252V291.948C294.685 291.845 294.768 291.762 294.871 291.762C294.974 291.762 295.057 291.845 295.057 291.948V296.252C295.057 296.355 294.974 296.438 294.871 296.438Z" fill="#23262A"/>
<path d="M254.348 281.632L252.56 288.076H246.051L247.064 279.605L254.348 281.632Z" fill="#F6C4AA"/>
<path d="M252.56 288.076V296.268H234.479C234.479 296.268 234.479 293.798 240.72 291.587C246.109 289.678 246.051 288.076 246.051 288.076H252.56Z" fill="white"/>
<path d="M249.253 292.673C250.214 292.446 250.809 291.483 250.582 290.522C250.356 289.561 249.392 288.965 248.431 289.192C247.47 289.419 246.875 290.382 247.102 291.343C247.329 292.305 248.292 292.9 249.253 292.673Z" fill="#D8E7FC"/>
<path d="M234.479 298.304H252.56V296.266H234.479V298.304Z" fill="#23262A"/>
<path d="M246.051 288.262C246.031 288.262 246.012 288.26 245.993 288.254C245.652 288.142 242.654 287.133 242.384 286.003C242.339 285.817 242.346 285.538 242.625 285.259C242.854 285.029 243.126 284.935 243.432 284.981C244.697 285.17 246.154 287.875 246.215 287.989C246.25 288.056 246.242 288.138 246.193 288.196C246.157 288.239 246.105 288.263 246.051 288.263V288.262ZM243.285 285.341C243.138 285.341 243.009 285.399 242.889 285.52C242.718 285.692 242.725 285.828 242.746 285.916C242.797 286.131 243.091 286.589 244.48 287.245C244.909 287.449 245.334 287.617 245.642 287.733C245.115 286.853 244.132 285.46 243.377 285.348C243.346 285.343 243.315 285.341 243.285 285.341Z" fill="#23262A"/>
<path d="M242.731 290.387C242.654 290.387 242.583 290.379 242.514 290.361C242.33 290.314 242.084 290.18 241.966 289.802C241.869 289.492 241.913 289.208 242.094 288.959C242.848 287.926 245.919 287.89 246.05 287.889H246.051C246.127 287.889 246.195 287.935 246.223 288.004C246.252 288.075 246.236 288.155 246.181 288.207C245.939 288.443 243.909 290.386 242.731 290.386V290.387ZM245.557 288.279C244.534 288.339 242.844 288.562 242.394 289.18C242.282 289.333 242.259 289.496 242.321 289.693C242.393 289.924 242.518 289.981 242.605 290.003C242.819 290.056 243.361 290.009 244.586 289.084C244.966 288.798 245.312 288.5 245.557 288.281V288.279Z" fill="#23262A"/>
<path d="M249.465 296.454C249.449 296.454 249.434 296.451 249.418 296.448C249.319 296.422 249.26 296.32 249.286 296.221C249.984 293.563 252.386 292.5 252.487 292.456C252.582 292.415 252.691 292.458 252.732 292.553C252.773 292.647 252.729 292.756 252.635 292.797C252.611 292.807 250.296 293.836 249.645 296.314C249.623 296.397 249.549 296.453 249.465 296.453V296.454Z" fill="#23262A"/>
<path d="M239.632 296.454C239.529 296.454 239.446 296.371 239.446 296.268V291.964C239.446 291.861 239.529 291.778 239.632 291.778C239.734 291.778 239.818 291.861 239.818 291.964V296.268C239.818 296.371 239.734 296.454 239.632 296.454Z" fill="#23262A"/>
<path d="M278.83 218.736C278.83 218.736 270.639 220.838 269.598 225.128C268.558 229.419 266.51 254.829 266.51 254.829L278.83 218.736Z" fill="#BA0000"/>
<path d="M259.536 208.357L298.94 201.108C298.94 201.108 306.914 200.933 304.574 189.627C302.234 178.32 296.513 154.396 296.513 154.396L273.298 157.562C266.636 158.471 261.265 163.473 259.888 170.054L254.346 196.524C254.346 196.524 250.904 204.589 259.536 208.358V208.357Z" fill="#FFE5AB"/>
<path d="M276.229 151.461L275.126 157.311L283.887 156.117L282.86 151.461H276.229Z" fill="#F6C4AA"/>
<path d="M288.114 146.056C288.802 141.82 285.925 137.828 281.689 137.141C277.453 136.453 273.462 139.33 272.775 143.566C272.087 147.801 274.963 151.793 279.199 152.48C283.435 153.168 287.427 150.291 288.114 146.056Z" fill="#F6C4AA"/>
<path d="M288.494 156.018L308.648 152.247L319.7 137.034L328.672 142.235L322.174 156.721C319.632 162.388 314.588 166.54 308.537 167.944L292.192 171.737L288.494 156.017V156.018Z" fill="#FFE5AB"/>
<path d="M259.889 170.052L251.971 180.942C249.38 184.506 249.816 189.436 252.991 192.49L254.823 194.252L259.889 170.052Z" fill="#FFCC57"/>
<path d="M300.067 169.911C300.067 169.911 298.204 164.538 302.409 164.625C307.089 164.721 316.705 163.907 316.705 163.907C316.705 163.907 313.351 166.698 310.077 167.524C306.803 168.35 300.069 169.912 300.069 169.912L300.067 169.911Z" fill="#FFCC57"/>
<path d="M270.479 140.708C272.666 140.708 274.439 138.935 274.439 136.748C274.439 134.561 272.666 132.789 270.479 132.789C268.292 132.789 266.52 134.561 266.52 136.748C266.52 138.935 268.292 140.708 270.479 140.708Z" fill="#23262A"/>
<path d="M278.705 151.957C282.996 151.957 286.475 148.479 286.475 144.187C286.475 139.896 282.996 136.417 278.705 136.417C274.413 136.417 270.934 139.896 270.934 144.187C270.934 148.479 274.413 151.957 278.705 151.957Z" fill="#23262A"/>
<path d="M285.853 147.808C286.682 146.98 286.682 145.638 285.853 144.81C285.025 143.982 283.683 143.982 282.855 144.81C282.027 145.638 282.027 146.98 282.855 147.808C283.683 148.637 285.025 148.637 285.853 147.808Z" fill="#F6C4AA"/>
<path d="M288.21 144.407C288.815 144.407 289.306 143.916 289.306 143.311C289.306 142.705 288.815 142.214 288.21 142.214C287.604 142.214 287.114 142.705 287.114 143.311C287.114 143.916 287.604 144.407 288.21 144.407Z" fill="#F6C4AA"/>
<path d="M285.375 146.953C285.325 146.953 285.277 146.933 285.239 146.894L283.753 145.334C283.682 145.26 283.684 145.142 283.759 145.071C283.833 145.001 283.951 145.003 284.022 145.078L285.508 146.638C285.579 146.712 285.577 146.83 285.502 146.9C285.466 146.935 285.42 146.951 285.373 146.951L285.375 146.953Z" fill="#23262A"/>
<path d="M283.554 146.563C283.478 146.563 283.406 146.516 283.379 146.44C283.344 146.343 283.394 146.237 283.491 146.202L284.567 145.811C284.664 145.777 284.77 145.826 284.805 145.923C284.84 146.02 284.79 146.126 284.693 146.161L283.617 146.552C283.596 146.559 283.575 146.563 283.554 146.563Z" fill="#23262A"/>
<path d="M320.925 137.745L327.796 130.429L330.743 135.962L330.146 137.035L327.139 141.347L320.925 137.745Z" fill="#F6C4AA"/>
<path d="M330.062 137.156L330.743 135.962L330.357 137.865L330.062 137.156Z" fill="#F2A680"/>
<path d="M283.01 152.14C283.01 152.14 282.154 152.227 280.737 152.575C279.328 152.921 280.44 155.289 283.888 156.117L283.01 152.14Z" fill="#F2A680"/>
<path d="M290.983 280.981C290.983 280.981 292.29 266.855 295.614 265.236L294.822 280.52L290.983 280.981Z" fill="#BA0000"/>
<path d="M247.064 279.605L253.953 283.057L254.348 281.632L247.064 279.605Z" fill="#F2A680"/>
<path d="M281.943 282.066V283.438L289.362 281.169L281.943 282.066Z" fill="#F2A680"/>
<path d="M450.397 149.671L455.525 152.476L450.397 155.28L447.592 160.409L444.787 155.28L439.66 152.476L444.787 149.671L447.592 144.542L450.397 149.671Z" fill="white"/>
<path d="M447.592 161.184C447.309 161.184 447.047 161.03 446.912 160.78L444.216 155.851L439.287 153.156C439.039 153.019 438.884 152.759 438.884 152.476C438.884 152.192 439.038 151.931 439.287 151.795L444.216 149.1L446.912 144.171C447.048 143.922 447.309 143.767 447.592 143.767C447.875 143.767 448.137 143.921 448.272 144.171L450.968 149.1L455.897 151.795C456.145 151.932 456.3 152.192 456.3 152.476C456.3 152.759 456.146 153.02 455.897 153.156L450.968 155.851L448.272 160.78C448.136 161.029 447.875 161.184 447.592 161.184ZM441.277 152.476L445.16 154.6C445.29 154.671 445.397 154.777 445.469 154.908L447.593 158.792L449.717 154.908C449.788 154.778 449.895 154.671 450.026 154.6L453.909 152.476L450.026 150.352C449.896 150.28 449.788 150.174 449.717 150.043L447.593 146.159L445.469 150.043C445.397 150.173 445.291 150.28 445.16 150.352L441.277 152.476Z" fill="white"/>
<path d="M368.476 142.357L374.844 139.643C373.069 138.286 372.025 136.198 372.025 134.528C372.025 124.297 392.277 122.94 392.277 107.177C392.277 98.1991 384.552 90.9961 371.817 90.9961C361.899 90.9961 354.174 95.1718 349.163 101.644L354.383 107.281C358.246 102.166 363.152 98.7211 370.981 98.7211C379.228 98.7211 383.3 103.21 383.3 108.43C383.3 119.495 364.405 120.643 364.405 133.901C364.405 137.033 365.657 139.956 368.476 142.357ZM370.668 162.713C373.8 162.713 376.41 160.104 376.41 156.972C376.41 153.84 373.8 151.23 370.668 151.23C367.536 151.23 364.927 153.84 364.927 156.972C364.927 160.104 367.536 162.713 370.668 162.713Z" fill="#F08080"/>
<path opacity="0.7" d="M251.247 17.3042H487.766C492.728 17.3042 496.757 21.1416 496.757 25.8702V30.1538H242.256V25.8702C242.256 21.143 246.284 17.3042 251.247 17.3042Z" fill="#D8E7FC"/>
<path d="M490.177 24.7025C490.41 23.4576 489.608 22.2558 488.386 22.0181C487.163 21.7805 485.983 22.5969 485.749 23.8417C485.516 25.0866 486.318 26.2884 487.54 26.5261C488.763 26.7638 489.943 25.9473 490.177 24.7025Z" fill="#8ED68C"/>
<path d="M482.136 24.7015C482.369 23.4567 481.567 22.2549 480.345 22.0172C479.122 21.7795 477.942 22.5959 477.708 23.8408C477.475 25.0856 478.277 26.2874 479.499 26.5251C480.722 26.7628 481.902 25.9463 482.136 24.7015Z" fill="#FFBF2D"/>
<path d="M474.094 24.7015C474.328 23.4567 473.526 22.2549 472.303 22.0172C471.081 21.7795 469.9 22.5959 469.667 23.8408C469.433 25.0856 470.235 26.2874 471.458 26.5251C472.68 26.7628 473.861 25.9463 474.094 24.7015Z" fill="#F08080"/>
<g filter="url(#filter0_d_954_1150578)">
<rect x="432.599" y="99.9751" width="127.07" height="34.1313" rx="6" fill="#D8E7FC"/>
<path d="M450.936 109.137H444.613C443.984 109.137 443.381 109.387 442.936 109.831C442.492 110.276 442.242 110.879 442.242 111.508V124.154C442.241 124.293 442.278 124.43 442.347 124.551C442.416 124.672 442.517 124.772 442.637 124.842C442.757 124.911 442.894 124.947 443.032 124.947C443.171 124.947 443.307 124.911 443.428 124.842L447.775 122.328L452.122 124.842C452.242 124.91 452.378 124.945 452.517 124.944C452.655 124.945 452.792 124.91 452.912 124.842C453.033 124.772 453.133 124.672 453.202 124.551C453.272 124.43 453.308 124.293 453.307 124.154V111.508C453.307 110.879 453.057 110.276 452.613 109.831C452.168 109.387 451.565 109.137 450.936 109.137Z" fill="white"/>
</g>
<path d="M548.515 55.5762L550.744 56.7956L548.515 58.0144L547.296 60.2436L546.077 58.0144L543.848 56.7956L546.077 55.5762L547.296 53.3477L548.515 55.5762Z" fill="#FAD5D5"/>
<path d="M547.297 60.5807C547.173 60.5807 547.06 60.5132 547.001 60.4053L545.829 58.2632L543.687 57.0916C543.579 57.0322 543.511 56.9189 543.511 56.7955C543.511 56.672 543.579 56.5587 543.687 56.4994L545.829 55.3278L547.001 53.1856C547.06 53.0777 547.173 53.0103 547.297 53.0103C547.42 53.0103 547.533 53.0777 547.593 53.1856L548.764 55.3278L550.907 56.4994C551.014 56.5587 551.082 56.672 551.082 56.7955C551.082 56.9189 551.014 57.0322 550.907 57.0916L548.764 58.2632L547.593 60.4053C547.533 60.5132 547.42 60.5807 547.297 60.5807ZM544.552 56.7955L546.24 57.7188C546.296 57.7499 546.343 57.7964 546.374 57.8531L547.297 59.5413L548.221 57.8531C548.252 57.7964 548.298 57.7499 548.355 57.7188L550.043 56.7955L548.355 55.8721C548.298 55.8411 548.252 55.7945 548.221 55.7379L547.297 54.0496L546.374 55.7379C546.343 55.7945 546.296 55.8411 546.24 55.8721L544.552 56.7955Z" fill="#FAD5D5"/>
<path d="M525.804 46.9248L528.033 48.1443L525.804 49.3631L524.585 51.5922L523.366 49.3631L521.137 48.1443L523.366 46.9248L524.585 44.6963L525.804 46.9248Z" fill="#FAD5D5"/>
<path d="M524.586 51.9293C524.462 51.9293 524.349 51.8619 524.29 51.754L523.118 49.6118L520.976 48.4402C520.868 48.3808 520.801 48.2675 520.801 48.1441C520.801 48.0207 520.868 47.9074 520.976 47.848L523.118 46.6764L524.29 44.5343C524.349 44.4263 524.462 44.3589 524.586 44.3589C524.709 44.3589 524.822 44.4263 524.882 44.5343L526.053 46.6764L528.196 47.848C528.304 47.9074 528.371 48.0207 528.371 48.1441C528.371 48.2675 528.304 48.3808 528.196 48.4402L526.053 49.6118L524.882 51.754C524.822 51.8619 524.709 51.9293 524.586 51.9293ZM521.841 48.1441L523.529 49.0675C523.585 49.0985 523.632 49.145 523.663 49.2017L524.586 50.8899L525.51 49.2017C525.541 49.145 525.587 49.0985 525.644 49.0675L527.332 48.1441L525.644 47.2207C525.587 47.1897 525.541 47.1432 525.51 47.0865L524.586 45.3983L523.663 47.0865C523.632 47.1432 523.585 47.1897 523.529 47.2207L521.841 48.1441Z" fill="#FAD5D5"/>
<path d="M184.16 247.98C184.036 247.98 183.911 247.966 183.787 247.94C182.827 247.737 182.212 246.789 182.416 245.829C182.515 245.364 182.789 244.966 183.188 244.707C183.586 244.448 184.062 244.36 184.527 244.459C184.992 244.558 185.39 244.831 185.649 245.23C185.908 245.629 185.996 246.105 185.897 246.57C185.798 247.035 185.524 247.433 185.126 247.692C184.834 247.882 184.501 247.98 184.161 247.98H184.16ZM184.154 244.793C183.884 244.793 183.622 244.87 183.39 245.02C183.075 245.224 182.858 245.539 182.78 245.908C182.618 246.666 183.104 247.415 183.863 247.577C184.23 247.655 184.607 247.585 184.922 247.381C185.237 247.176 185.454 246.861 185.533 246.493C185.611 246.126 185.541 245.749 185.337 245.434C185.132 245.119 184.817 244.902 184.449 244.824C184.351 244.803 184.252 244.793 184.154 244.793Z" fill="#23262A"/>
<path d="M159.321 229.555C158.97 229.555 158.769 229.546 158.762 229.546C158.659 229.541 158.579 229.455 158.584 229.352C158.589 229.249 158.673 229.168 158.779 229.174C158.867 229.178 167.637 229.523 171.571 225.104C172.365 224.213 172.912 223.182 173.209 222.023C171.31 221.604 169.71 220.369 168.934 218.605C167.975 216.429 168.702 215.242 169.058 214.833C169.59 214.223 170.388 213.995 171.192 214.224C172.441 214.58 173.371 215.932 173.682 217.839C173.911 219.251 173.904 220.551 173.661 221.729C174.202 221.815 174.763 221.831 175.335 221.772C176.773 221.625 178.103 221.016 179.183 220.014C180.412 218.872 181.246 217.303 181.66 215.35C181.682 215.25 181.781 215.185 181.881 215.206C181.982 215.227 182.046 215.327 182.025 215.427C181.593 217.457 180.723 219.091 179.436 220.287C178.296 221.345 176.891 221.987 175.373 222.143C174.761 222.206 174.157 222.187 173.578 222.094C173.266 223.32 172.69 224.409 171.849 225.354C170.677 226.669 168.322 228.402 163.756 229.181C161.842 229.507 160.158 229.556 159.321 229.556V229.555ZM170.584 214.509C170.106 214.509 169.662 214.707 169.339 215.077C168.694 215.818 168.67 217.08 169.275 218.455C170.003 220.108 171.506 221.267 173.294 221.661C173.529 220.524 173.538 219.268 173.315 217.9C173.028 216.138 172.196 214.898 171.09 214.583C170.92 214.534 170.749 214.511 170.584 214.511V214.509Z" fill="#23262A"/>
<path d="M531.012 72.8345L535.11 75.0765L531.012 77.3173L528.771 81.4157L526.529 77.3173L522.432 75.0765L526.529 72.8345L528.771 68.7373L531.012 72.8345Z" fill="#E00000"/>
<path d="M528.769 82.0361C528.542 82.0361 528.334 81.9121 528.225 81.7137L526.071 77.7753L522.132 75.6213C521.934 75.5121 521.81 75.3038 521.81 75.0769C521.81 74.85 521.934 74.6416 522.132 74.5325L526.071 72.3785L528.225 68.4401C528.334 68.2417 528.542 68.1177 528.769 68.1177C528.996 68.1177 529.205 68.2417 529.314 68.4401L531.468 72.3785L535.406 74.5325C535.604 74.6416 535.728 74.85 535.728 75.0769C535.728 75.3038 535.604 75.5121 535.406 75.6213L531.468 77.7753L529.314 81.7137C529.205 81.9121 528.996 82.0361 528.769 82.0361ZM523.722 75.0769L526.826 76.7745C526.93 76.8316 527.016 76.9171 527.073 77.0213L528.771 80.1252L530.468 77.0213C530.525 76.9171 530.611 76.8316 530.715 76.7745L533.819 75.0769L530.715 73.3792C530.611 73.3222 530.525 73.2366 530.468 73.1325L528.771 70.0286L527.073 73.1325C527.016 73.2366 526.93 73.3222 526.826 73.3792L523.722 75.0769Z" fill="#E00000"/>
<path d="M346.704 233.049L349.569 234.616L346.704 236.183L345.136 239.049L343.569 236.183L340.703 234.616L343.569 233.049L345.136 230.183L346.704 233.049Z" fill="white"/>
<path d="M345.137 239.482C344.978 239.482 344.832 239.395 344.756 239.257L343.249 236.502L340.495 234.996C340.356 234.92 340.27 234.774 340.27 234.615C340.27 234.457 340.356 234.311 340.495 234.235L343.249 232.728L344.756 229.974C344.832 229.835 344.978 229.749 345.137 229.749C345.295 229.749 345.441 229.835 345.517 229.974L347.024 232.728L349.778 234.235C349.917 234.311 350.003 234.457 350.003 234.615C350.003 234.774 349.917 234.92 349.778 234.996L347.024 236.502L345.517 239.257C345.441 239.395 345.295 239.482 345.137 239.482ZM341.607 234.615L343.778 235.802C343.85 235.842 343.91 235.902 343.95 235.975L345.137 238.146L346.325 235.975C346.364 235.902 346.424 235.842 346.497 235.802L348.668 234.615L346.497 233.428C346.424 233.388 346.364 233.328 346.325 233.256L345.137 231.085L343.95 233.256C343.91 233.328 343.85 233.388 343.778 233.428L341.607 234.615Z" fill="white"/>
<path d="M202.307 19.8762L206.404 22.117L202.307 24.3578L200.065 28.4562L197.824 24.3578L193.725 22.117L197.824 19.8762L200.065 15.7778L202.307 19.8762Z" fill="#E8F1FD"/>
<path d="M200.064 29.0761C199.837 29.0761 199.628 28.9521 199.519 28.7537L197.365 24.8153L193.427 22.6613C193.228 22.5522 193.104 22.3439 193.104 22.1169C193.104 21.89 193.228 21.6817 193.427 21.5725L197.365 19.4186L199.519 15.4801C199.628 15.2817 199.837 15.1577 200.064 15.1577C200.291 15.1577 200.499 15.2817 200.608 15.4801L202.762 19.4186L206.7 21.5725C206.899 21.6817 207.023 21.89 207.023 22.1169C207.023 22.3439 206.899 22.5522 206.7 22.6613L202.762 24.8153L200.608 28.7537C200.499 28.9521 200.291 29.0761 200.064 29.0761ZM195.017 22.1169L198.121 23.8146C198.225 23.8716 198.31 23.9572 198.367 24.0613L200.065 27.1652L201.763 24.0613C201.82 23.9572 201.905 23.8716 202.009 23.8146L205.113 22.1169L202.009 20.4193C201.905 20.3622 201.82 20.2767 201.763 20.1725L200.065 17.0686L198.367 20.1725C198.31 20.2767 198.225 20.3622 198.121 20.4193L195.017 22.1169Z" fill="#E8F1FD"/>
<path d="M185.694 13.8508C185.77 13.9896 185.916 14.0763 186.075 14.0763C186.233 14.0763 186.379 13.9896 186.455 13.8508L187.962 11.0966L190.716 9.59023C190.855 9.51391 190.941 9.36822 190.941 9.20952C190.941 9.05082 190.855 8.90513 190.716 8.82882L187.962 7.32249L186.455 4.56824C186.379 4.42949 186.233 4.34277 186.075 4.34277C185.916 4.34277 185.77 4.42949 185.694 4.56824L184.187 7.32249L181.433 8.82882C181.294 8.90513 181.208 9.05082 181.208 9.20952C181.208 9.36822 181.294 9.51391 181.433 9.59023L184.187 11.0966L185.694 13.8508Z" fill="#E8F1FD" fill-opacity="0.75"/>
<path d="M432.878 261.741C432.878 261.741 430.738 247.335 429.769 244.167C428.516 240.074 427.902 233.977 431.347 230.39C434.792 226.801 435.313 218.359 435.313 217.066C435.313 215.773 436.604 196.399 450.813 199.269C450.813 199.269 456.697 200.703 453.826 211.038C453.826 211.038 450.811 217.21 454.615 221.084C458.42 224.959 461.719 233.858 454.615 242.469C447.512 251.081 449.534 254.233 450.669 257.539C455.844 272.612 444.832 286.452 443.637 290.146C442.442 293.838 441.007 299.9 442.206 303.388L438.027 303.466L432.879 261.741H432.878Z" fill="#F5C6C6"/>
<path d="M447.481 303.466C447.481 303.466 447.481 300.069 454.452 296.853C454.452 296.853 459.635 295.244 461.423 288.452C463.21 281.66 468.215 283.447 471.433 285.413C474.65 287.38 481.96 285.413 481.97 275.224C481.97 275.224 479.797 269.862 484.462 267.002C489.128 264.142 490.916 253.926 480.906 254.03C470.896 254.133 461.466 259.075 451.771 273.438C438.297 293.397 443.542 303.466 443.542 303.466H447.482H447.481Z" fill="#FAD5D5"/>
<path d="M432.801 303.466C432.801 303.466 425.482 299.304 426.916 290.98C428.351 282.655 420.888 280.789 419.166 280.503C417.443 280.215 406.249 275.623 407.972 258.831C407.972 258.831 408.545 248.067 406.537 244.192C404.527 240.318 399.505 228.693 406.537 225.104C413.569 221.515 418.45 227.974 421.033 234.576C421.033 234.576 423.043 242.182 424.764 244.049C426.487 245.915 438.973 256.823 437.968 279.498L435.525 303.466H432.803H432.801Z" fill="#FAD5D5"/>
<path d="M433.738 303.706C433.738 303.706 433.733 303.706 433.73 303.706C433.597 303.701 433.493 303.591 433.498 303.458C433.504 303.245 434.171 282.01 430.596 271.627C428.852 266.561 426.212 262.955 423.418 259.136C419.288 253.495 415.018 247.661 413.515 236.627C413.497 236.496 413.588 236.375 413.719 236.357C413.85 236.338 413.972 236.431 413.989 236.562C415.475 247.474 419.709 253.258 423.804 258.852C426.621 262.701 429.282 266.336 431.05 271.471C434.653 281.938 433.985 303.26 433.977 303.474C433.973 303.603 433.867 303.706 433.738 303.706Z" fill="#EA5656"/>
<path d="M439.567 303.705C439.449 303.705 439.345 303.618 439.329 303.496C438.667 298.347 439.642 289.962 440.585 281.853C441.454 274.372 442.275 267.307 441.92 262.592C441.567 257.901 442.16 253.456 442.788 248.751C443.534 243.151 444.307 237.36 443.547 230.611C442.152 218.245 446.177 208.911 446.218 208.818C446.271 208.697 446.413 208.642 446.535 208.695C446.656 208.748 446.711 208.89 446.658 209.011C446.618 209.102 442.644 218.328 444.025 230.559C444.793 237.368 444.017 243.187 443.266 248.816C442.641 253.496 442.051 257.917 442.401 262.558C442.759 267.32 441.936 274.407 441.064 281.912C440.125 289.992 439.153 298.347 439.808 303.439C439.826 303.57 439.733 303.69 439.601 303.707C439.589 303.707 439.58 303.709 439.57 303.709L439.567 303.705Z" fill="#EA5656"/>
<path d="M445.187 303.706C445.056 303.706 444.949 303.6 444.947 303.469C444.947 303.431 444.909 299.618 446.153 295.038C447.304 290.799 449.817 285.009 455.259 281.502C459.415 278.824 462.136 275.444 464.766 272.177C468.711 267.28 472.435 262.653 480.422 261.018C480.552 260.993 480.678 261.076 480.705 261.205C480.732 261.335 480.647 261.461 480.518 261.488C472.7 263.087 469.027 267.649 465.138 272.477C462.483 275.774 459.738 279.183 455.518 281.904C450.205 285.328 447.745 291.005 446.615 295.164C445.39 299.681 445.426 303.426 445.426 303.464C445.428 303.597 445.323 303.706 445.19 303.707H445.187V303.706Z" fill="#EA5656"/>
<path d="M141.981 266.12C141.981 266.12 143.164 258.157 143.7 256.405C144.392 254.142 144.731 250.772 142.827 248.789C140.923 246.805 140.635 242.138 140.635 241.423C140.635 240.709 139.921 229.998 132.066 231.584C132.066 231.584 128.813 232.378 130.4 238.091C130.4 238.091 132.067 241.503 129.964 243.645C127.861 245.787 126.037 250.706 129.964 255.466C133.891 260.227 132.773 261.97 132.146 263.797C129.285 272.13 135.372 279.781 136.033 281.823C136.694 283.864 137.487 287.215 136.824 289.144L139.134 289.187L141.98 266.12H141.981Z" fill="#F5C6C6"/>
<path d="M133.908 289.186C133.908 289.186 133.908 287.308 130.055 285.53C130.055 285.53 127.189 284.641 126.201 280.886C125.213 277.131 122.446 278.12 120.667 279.206C118.888 280.293 114.847 279.206 114.842 273.573C114.842 273.573 116.043 270.609 113.464 269.028C110.885 267.447 109.897 261.799 115.43 261.857C120.964 261.914 126.177 264.646 131.537 272.586C138.985 283.62 136.086 289.186 136.086 289.186H133.908H133.908Z" fill="#FAD5D5"/>
<path d="M142.024 289.187C142.024 289.187 146.07 286.886 145.277 282.284C144.484 277.682 148.609 276.651 149.561 276.493C150.514 276.334 156.702 273.795 155.75 264.512C155.75 264.512 155.433 258.561 156.543 256.419C157.654 254.278 160.43 247.851 156.543 245.867C152.656 243.883 149.957 247.453 148.529 251.103C148.529 251.103 147.418 255.308 146.466 256.34C145.514 257.372 138.612 263.402 139.167 275.937L140.518 289.187H142.023H142.024Z" fill="#FAD5D5"/>
<path d="M141.506 289.319C141.506 289.319 141.509 289.319 141.51 289.319C141.584 289.316 141.641 289.255 141.638 289.182C141.635 289.065 141.267 277.325 143.243 271.586C144.207 268.785 145.666 266.791 147.211 264.68C149.494 261.561 151.854 258.336 152.686 252.237C152.695 252.164 152.645 252.097 152.573 252.087C152.5 252.077 152.433 252.128 152.423 252.2C151.602 258.233 149.261 261.431 146.997 264.523C145.44 266.651 143.969 268.66 142.992 271.499C141 277.285 141.369 289.073 141.374 289.191C141.376 289.262 141.434 289.319 141.506 289.319Z" fill="#EA5656"/>
<path d="M139.364 289.32C139.429 289.32 139.487 289.271 139.496 289.204C139.861 286.357 139.323 281.722 138.801 277.239C138.321 273.104 137.867 269.198 138.063 266.591C138.258 263.998 137.931 261.541 137.583 258.939C137.171 255.844 136.743 252.643 137.164 248.912C137.935 242.075 135.71 236.915 135.687 236.864C135.658 236.797 135.579 236.767 135.512 236.796C135.445 236.825 135.415 236.904 135.444 236.971C135.466 237.021 137.663 242.121 136.9 248.882C136.475 252.647 136.904 255.864 137.319 258.976C137.665 261.563 137.991 264.007 137.797 266.573C137.599 269.205 138.054 273.123 138.536 277.272C139.056 281.738 139.593 286.357 139.231 289.172C139.221 289.244 139.272 289.311 139.346 289.32C139.352 289.32 139.357 289.321 139.362 289.321L139.364 289.32Z" fill="#EA5656"/>
<path d="M135.176 289.319C135.248 289.319 135.307 289.26 135.308 289.188C135.308 289.167 135.329 287.059 134.641 284.527C134.005 282.184 132.616 278.983 129.608 277.044C127.31 275.564 125.806 273.695 124.352 271.889C122.171 269.182 120.112 266.624 115.697 265.72C115.625 265.706 115.556 265.752 115.541 265.824C115.526 265.895 115.572 265.965 115.644 265.98C119.966 266.864 121.996 269.386 124.146 272.055C125.614 273.877 127.132 275.762 129.465 277.266C132.401 279.159 133.762 282.298 134.386 284.597C135.064 287.094 135.043 289.164 135.043 289.185C135.042 289.259 135.101 289.319 135.174 289.32H135.176V289.319Z" fill="#EA5656"/>
<rect x="163.991" y="49.749" width="51.7515" height="16.0183" rx="2.46436" fill="#D8E7FC" fill-opacity="0.6"/>
<rect x="220.671" y="49.749" width="51.7515" height="16.0183" rx="2.46436" fill="#D8E7FC" fill-opacity="0.6"/>
<rect x="277.352" y="49.749" width="50.5193" height="16.0183" rx="2.46436" fill="#D8E7FC" fill-opacity="0.6"/>
<rect x="332.8" y="49.749" width="51.7515" height="16.0183" rx="2.46436" fill="#D8E7FC" fill-opacity="0.6"/>
<rect x="389.48" y="49.749" width="51.7515" height="16.0183" rx="2.46436" fill="#D8E7FC"/>
<defs>
<filter id="filter0_d_954_1150578" x="424.599" y="93.9751" width="143.07" height="50.1313" filterUnits="userSpaceOnUse" color-interpolation-filters="sRGB">
<feFlood flood-opacity="0" result="BackgroundImageFix"/>
<feColorMatrix in="SourceAlpha" type="matrix" values="0 0 0 0 0 0 0 0 0 0 0 0 0 0 0 0 0 0 127 0" result="hardAlpha"/>
<feOffset dy="2"/>
<feGaussianBlur stdDeviation="4"/>
<feColorMatrix type="matrix" values="0 0 0 0 0 0 0 0 0 0 0 0 0 0 0 0 0 0 0.04 0"/>
<feBlend mode="normal" in2="BackgroundImageFix" result="effect1_dropShadow_954_1150578"/>
<feBlend mode="normal" in="SourceGraphic" in2="effect1_dropShadow_954_1150578" result="shape"/>
</filter>
</defs>
</svg>
