<svg width="461" height="414" viewBox="0 0 461 414" fill="none" xmlns="http://www.w3.org/2000/svg">
<g clip-path="url(#clip0_94_6020)">
<path d="M412.929 38.2045C408.613 30.7376 413.795 24.4573 417.184 21C418.33 23.3867 422.408 33.3084 412.929 38.2045Z" fill="#E00000" fill-opacity="0.12"/>
<path d="M380.47 107.547C380.313 107.547 380.15 107.493 380.02 107.377C379.741 107.131 379.707 106.702 379.959 106.415C391.592 93.1456 406.28 67.8946 412.636 36.7929C412.711 36.4246 413.072 36.186 413.44 36.261C413.809 36.336 414.047 36.6974 413.972 37.0656C407.569 68.4197 392.738 93.9093 380.989 107.309C380.852 107.466 380.668 107.541 380.477 107.541L380.47 107.547Z" fill="#E00000" fill-opacity="0.12"/>
<path d="M390.828 99.8487C406.464 92.1568 414.606 102.038 421.119 109.32C416.154 111.312 399.407 119.61 390.828 99.8487Z" fill="#E00000" fill-opacity="0.12"/>
<path d="M400.273 86.0811C410.89 76.9777 419.196 83.033 425.715 87.3972C422.251 89.9339 410.89 99.7328 400.273 86.0811Z" fill="#E00000" fill-opacity="0.12"/>
<path d="M407.378 69.3471C414.422 59.6027 422.578 62.9918 428.899 65.3307C426.519 68.147 418.991 78.621 407.378 69.3471Z" fill="#E00000" fill-opacity="0.12"/>
<path d="M412.915 52.6609C415.432 45.6236 420.887 46.2373 425.067 46.5374C424.133 48.6308 421.453 56.1863 412.915 52.6609Z" fill="#E00000" fill-opacity="0.12"/>
<path d="M384.303 93.5138C387.896 78.5665 377.818 73.4658 370.289 69.2721C369.532 73.9295 365.632 89.9543 384.303 93.5138Z" fill="#E00000" fill-opacity="0.12"/>
<path d="M394.292 78.3482C399.366 66.0944 391.463 60.3937 385.605 55.8044C384.337 59.6708 378.861 72.7975 394.292 78.3482Z" fill="#E00000" fill-opacity="0.12"/>
<path d="M403.355 58.723C404.371 49.7151 398.104 47.4716 393.392 45.5623C393.29 48.3376 392.179 57.9934 403.355 58.723Z" fill="#E00000" fill-opacity="0.12"/>
<path d="M408.531 45.0712C410.072 40.0251 406.724 38.0681 404.228 36.4724C403.873 38.0544 402.203 43.4619 408.531 45.0712Z" fill="#E00000" fill-opacity="0.12"/>
<path d="M104.83 232.292C104.571 232.292 104.318 232.142 104.209 231.883C98.5152 218.9 72.4459 178.831 54.7368 159.09C54.4845 158.81 54.5118 158.381 54.7914 158.128C55.071 157.876 55.5006 157.903 55.7529 158.183C73.537 178.006 99.7358 218.279 105.457 231.338C105.607 231.685 105.457 232.081 105.109 232.238C105.021 232.279 104.925 232.292 104.836 232.292H104.83Z" fill="#3A88EF" fill-opacity="0.04"/>
<path d="M104.523 231.751L104.521 231.746C101.661 225.224 93.7044 211.938 84.262 197.831C74.8161 183.718 63.8611 168.75 54.9906 158.862L54.9906 158.862L54.99 158.861C54.867 158.725 54.8764 158.511 55.0198 158.381C55.1559 158.259 55.37 158.268 55.4995 158.411C64.3755 168.305 75.3607 183.313 84.8452 197.487C94.3327 211.665 102.297 224.974 105.144 231.473C105.221 231.652 105.145 231.848 104.969 231.927L104.966 231.928C104.935 231.943 104.892 231.951 104.836 231.951H104.83C104.699 231.951 104.576 231.875 104.523 231.751Z" stroke="#3A88EF" stroke-opacity="0.12" stroke-width="0.681906"/>
<path d="M56.3461 157.003C56.8098 155.339 55.8347 153.607 54.1708 153.144C52.507 152.68 50.7749 153.655 50.3112 155.319C49.8475 156.983 50.8227 158.715 52.4865 159.178C54.1504 159.642 55.8824 158.667 56.3461 157.003Z" stroke="#3A88EF" stroke-opacity="0.12" stroke-width="3.40953" stroke-linecap="round" stroke-linejoin="round"/>
<path d="M82.0607 168.582C82.5108 166.966 81.563 165.295 79.9537 164.845C78.3375 164.395 76.6669 165.336 76.2168 166.952C75.7668 168.568 76.7078 170.239 78.3239 170.689C79.94 171.139 81.6107 170.191 82.0607 168.582Z" stroke="#3A88EF" stroke-opacity="0.12" stroke-width="3.40953" stroke-linecap="round" stroke-linejoin="round"/>
<path d="M74.4235 198.865C74.935 197.031 73.8644 195.135 72.03 194.624C70.2025 194.112 68.3 195.183 67.7886 197.017C67.2772 198.852 68.3477 200.747 70.1821 201.259C72.0096 201.77 73.9121 200.7 74.4235 198.865Z" stroke="#3A88EF" stroke-opacity="0.12" stroke-width="3.40953" stroke-linecap="round" stroke-linejoin="round"/>
<path d="M100.677 198.211C101.27 196.09 100.029 193.894 97.9083 193.308C95.7876 192.715 93.5918 193.956 93.0054 196.076C92.4121 198.197 93.6532 200.393 95.7739 200.979C97.8947 201.572 100.09 200.331 100.677 198.211Z" stroke="#3A88EF" stroke-opacity="0.12" stroke-width="3.40953" stroke-linecap="round" stroke-linejoin="round"/>
<path d="M52.6025 167.048C52.9843 165.663 52.1797 164.231 50.7954 163.849C49.4111 163.468 47.9791 164.272 47.5973 165.656C47.2086 167.041 48.02 168.473 49.4043 168.861C50.7886 169.243 52.2206 168.439 52.6093 167.054L52.6025 167.048Z" stroke="#3A88EF" stroke-opacity="0.12" stroke-width="3.40953" stroke-linecap="round" stroke-linejoin="round"/>
<path d="M64.6995 170.716C64.5631 170.716 64.4199 170.675 64.304 170.587C62.5583 169.325 56.9803 168.234 53.9799 167.641C53.3935 167.525 52.8957 167.429 52.5343 167.348C52.166 167.266 51.9342 166.904 52.0092 166.536C52.091 166.168 52.4456 165.936 52.8207 166.011C53.1821 166.086 53.673 166.182 54.2458 166.297C58.535 167.143 63.2675 168.152 65.1018 169.475C65.4086 169.693 65.4768 170.123 65.2586 170.423C65.1222 170.607 64.9177 170.703 64.7063 170.703L64.6995 170.716Z" fill="#3A88EF" fill-opacity="0.04"/>
<path d="M64.5111 170.316L64.5111 170.316L64.5037 170.31C64.0263 169.965 63.3125 169.648 62.4902 169.356C61.6612 169.062 60.6954 168.786 59.6963 168.533C57.7493 168.038 55.6545 167.624 54.1622 167.329C54.1231 167.322 54.0843 167.314 54.046 167.306L54.046 167.306C53.9356 167.284 53.8288 167.263 53.7256 167.243C53.2768 167.155 52.8985 167.08 52.6096 167.015L52.6096 167.015L52.6082 167.015C52.424 166.974 52.3063 166.794 52.3427 166.607C52.3852 166.423 52.56 166.307 52.7528 166.345C52.9566 166.387 53.2033 166.437 53.4814 166.492C53.6966 166.535 53.9306 166.581 54.1782 166.632L54.1782 166.632L54.1799 166.632C56.3245 167.055 58.5697 167.517 60.5059 168.037C62.4571 168.561 64.0418 169.131 64.9023 169.752L64.9023 169.752L64.9042 169.753C65.056 169.861 65.0893 170.075 64.9837 170.221C64.9137 170.315 64.8126 170.362 64.7063 170.362H64.6035C64.5689 170.351 64.5373 170.336 64.5111 170.316Z" stroke="#3A88EF" stroke-opacity="0.12" stroke-width="0.681906"/>
<path d="M76.7079 186.959C76.3669 186.959 76.0737 186.707 76.0328 186.359C75.3577 180.645 77.0283 172.803 77.6693 170.512C77.7716 170.15 78.1467 169.939 78.5081 170.041C78.8695 170.143 79.0809 170.518 78.9786 170.88C78.474 172.694 76.7215 180.611 77.3829 186.202C77.4239 186.577 77.1579 186.912 76.7897 186.959C76.7624 186.959 76.7351 186.959 76.7079 186.959Z" fill="#3A88EF" fill-opacity="0.04"/>
<path d="M76.3714 186.319L76.3714 186.319C76.0389 183.505 76.2833 180.149 76.6952 177.199C77.1066 174.252 77.6814 171.734 77.9975 170.604C78.0491 170.423 78.2365 170.319 78.4152 170.369C78.5969 170.421 78.7011 170.608 78.6505 170.787L78.6501 170.789C78.3936 171.711 77.8264 174.158 77.406 177.076C76.9862 179.99 76.7085 183.401 77.0441 186.241C77.0635 186.424 76.9386 186.586 76.7639 186.618H76.7638H76.7636H76.7635H76.7633H76.7631H76.763H76.7628H76.7627H76.7625H76.7623H76.7622H76.762H76.7619H76.7617H76.7616H76.7614H76.7612H76.7611H76.7609H76.7608H76.7606H76.7604H76.7603H76.7601H76.76H76.7598H76.7596H76.7595H76.7593H76.7592H76.759H76.7588H76.7587H76.7585H76.7584H76.7582H76.758H76.7579H76.7577H76.7576H76.7574H76.7572H76.7571H76.7569H76.7568H76.7566H76.7564H76.7563H76.7561H76.756H76.7558H76.7556H76.7555H76.7553H76.7552H76.755H76.7548H76.7547H76.7545H76.7544H76.7542H76.754H76.7539H76.7537H76.7536H76.7534H76.7532H76.7531H76.7529H76.7528H76.7526H76.7524H76.7523H76.7521H76.752H76.7518H76.7516H76.7515H76.7513H76.7512H76.751H76.7508H76.7507H76.7505H76.7504H76.7502H76.75H76.7499H76.7497H76.7496H76.7494H76.7492H76.7491H76.7489H76.7488H76.7486H76.7484H76.7483H76.7481H76.748H76.7478H76.7476H76.7475H76.7473H76.7472H76.747H76.7468H76.7467H76.7465H76.7464H76.7462H76.746H76.7459H76.7457H76.7456H76.7454H76.7452H76.7451H76.7449H76.7448H76.7446H76.7445H76.7443H76.7441H76.744H76.7438H76.7437H76.7435H76.7433H76.7432H76.743H76.7429H76.7427H76.7425H76.7424H76.7422H76.7421H76.7419H76.7417H76.7416H76.7414H76.7413H76.7411H76.7409H76.7408H76.7406H76.7405H76.7403H76.7401H76.74H76.7398H76.7397H76.7395H76.7393H76.7392H76.739H76.7389H76.7387H76.7385H76.7384H76.7382H76.7381H76.7379H76.7377H76.7376H76.7374H76.7373H76.7371H76.7369H76.7368H76.7366H76.7365H76.7363H76.7361H76.736H76.7358H76.7357H76.7355H76.7353H76.7352H76.735H76.7349H76.7347H76.7345H76.7344H76.7342H76.7341H76.7339H76.7337H76.7336H76.7334H76.7333H76.7331H76.7329H76.7328H76.7326H76.7325H76.7323H76.7321H76.732H76.7318H76.7317H76.7315H76.7313H76.7312H76.731H76.7309H76.7307H76.7305H76.7304H76.7302H76.7301H76.7299H76.7297H76.7296H76.7294H76.7293H76.7291H76.7289H76.7288H76.7286H76.7285H76.7283H76.7281H76.728H76.7278H76.7277H76.7275H76.7274H76.7272H76.727H76.7269H76.7267H76.7266H76.7264H76.7262H76.7261H76.7259H76.7258H76.7256H76.7254H76.7253H76.7251H76.725H76.7248H76.7246H76.7245H76.7243H76.7242H76.724H76.7238H76.7237H76.7235H76.7234H76.7232H76.723H76.7229H76.7227H76.7226H76.7224H76.7222H76.7221H76.7219H76.7218H76.7216H76.7214H76.7213H76.7211H76.721H76.7208H76.7206H76.7205H76.7203H76.7202H76.72H76.7198H76.7197H76.7195H76.7194H76.7192H76.719H76.7189H76.7187H76.7186H76.7184H76.7182H76.7181H76.7179H76.7178H76.7176H76.7174H76.7173H76.7171H76.717H76.7168H76.7166H76.7165H76.7163H76.7162H76.716H76.7158H76.7157H76.7155H76.7154H76.7152H76.715H76.7149H76.7147H76.7146H76.7144H76.7142H76.7141H76.7139H76.7138H76.7136H76.7134H76.7133H76.7131H76.713H76.7128H76.7126H76.7125H76.7123H76.7122H76.712H76.7118H76.7117H76.7115H76.7114H76.7112H76.711H76.7109H76.7107H76.7106H76.7104H76.7103H76.7101H76.7099H76.7098H76.7096H76.7095H76.7093H76.7091H76.709H76.7088H76.7087H76.7085H76.7083H76.7082H76.708H76.7079C76.5367 186.618 76.3917 186.492 76.3714 186.319Z" stroke="#3A88EF" stroke-opacity="0.12" stroke-width="0.681906"/>
<path d="M87.3252 202.575C87.1888 202.575 87.0524 202.534 86.9297 202.452C84.6658 200.85 76.3533 199.309 74.5054 199.54C74.1371 199.588 73.7894 199.322 73.7416 198.947C73.6939 198.572 73.9598 198.231 74.3349 198.183C76.4215 197.917 85.1363 199.513 87.7139 201.341C88.0207 201.559 88.0957 201.982 87.8775 202.288C87.748 202.473 87.5366 202.575 87.3184 202.575H87.3252Z" fill="#3A88EF" fill-opacity="0.04"/>
<path d="M86.9297 202.452C84.6658 200.85 76.3533 199.309 74.5054 199.54C74.1371 199.588 73.7894 199.322 73.7416 198.947C73.6939 198.572 73.9598 198.231 74.3349 198.183C76.4215 197.917 85.1363 199.513 87.7139 201.341M86.9297 202.452C87.0504 202.533 87.1843 202.574 87.3184 202.575V202.234C87.3195 202.234 87.3207 202.234 87.3218 202.234M86.9297 202.452L87.1267 202.174C87.1252 202.173 87.1236 202.172 87.1221 202.171M86.9297 202.452L87.1188 202.168C87.1199 202.169 87.121 202.17 87.1221 202.171M87.3218 202.234C87.3229 202.234 87.3241 202.234 87.3252 202.234V202.575C87.541 202.573 87.7493 202.471 87.8775 202.288C88.0957 201.982 88.0207 201.559 87.7139 201.341M87.3218 202.234C87.4338 202.233 87.537 202.18 87.5987 202.092L87.5997 202.091C87.7068 201.94 87.6724 201.73 87.5164 201.619M87.3218 202.234C87.2569 202.233 87.1885 202.214 87.1221 202.171M87.7139 201.341L87.5163 201.619C87.5163 201.619 87.5164 201.619 87.5164 201.619M87.7139 201.341L87.5167 201.619C87.5166 201.619 87.5165 201.619 87.5164 201.619M87.5164 201.619C86.9149 201.192 85.9269 200.763 84.722 200.363C83.5247 199.965 82.141 199.606 80.7686 199.31C79.3964 199.015 78.0411 198.785 76.9018 198.646C75.7508 198.505 74.853 198.461 74.378 198.522L74.3779 198.522C74.1883 198.546 74.0561 198.717 74.0799 198.904C74.1038 199.092 74.2806 199.226 74.4615 199.202L74.4629 199.202L74.4629 199.202C74.973 199.138 75.8788 199.197 76.951 199.334C78.0363 199.472 79.3289 199.695 80.6331 199.975C81.937 200.255 83.2579 200.593 84.3986 200.964C85.5271 201.331 86.5111 201.74 87.1221 202.171" stroke="#3A88EF" stroke-opacity="0.12" stroke-width="0.681906"/>
<path d="M96.449 217.031C96.1149 217.031 95.8216 216.786 95.7739 216.445C95.4534 214.167 96.2649 202.875 96.4285 201.054C96.4626 200.679 96.79 200.406 97.165 200.434C97.5401 200.468 97.8128 200.795 97.7855 201.17C97.581 203.475 96.8445 214.249 97.1241 216.247C97.1786 216.622 96.9195 216.963 96.5445 217.018C96.5104 217.018 96.4831 217.018 96.449 217.018V217.031Z" fill="#3A88EF" fill-opacity="0.04"/>
<path d="M96.3538 216.677C96.2288 216.64 96.1306 216.533 96.1116 216.398L96.1115 216.397C96.036 215.861 96.0251 214.757 96.0588 213.343C96.0923 211.941 96.1686 210.263 96.2601 208.597C96.4432 205.265 96.6867 201.991 96.7681 201.085L96.3538 216.677ZM96.3538 216.677H96.449H96.4492H96.4494H96.4496H96.4498H96.45H96.4502H96.4504H96.4506H96.4508H96.451H96.4512H96.4514H96.4516H96.4518H96.452H96.4522H96.4524H96.4526H96.4528H96.453H96.4532H96.4534H96.4536H96.4538H96.454H96.4541H96.4543H96.4545H96.4547H96.4549H96.4551H96.4553H96.4555H96.4557H96.4559H96.4561H96.4563H96.4565H96.4567H96.4569H96.4571H96.4573H96.4575H96.4577H96.4578H96.458H96.4582H96.4584H96.4586H96.4588H96.459H96.4592H96.4594H96.4596H96.4598H96.46H96.4602H96.4603H96.4605H96.4607H96.4609H96.4611H96.4613H96.4615H96.4617H96.4619H96.4621H96.4623H96.4624H96.4626H96.4628H96.463H96.4632H96.4634H96.4636H96.4638H96.464H96.4642H96.4643H96.4645H96.4647H96.4649H96.4651H96.4653H96.4655H96.4657H96.4659H96.466H96.4662H96.4664H96.4666H96.4668H96.467H96.4672H96.4674H96.4676H96.4677H96.4679H96.4681H96.4683H96.4685H96.4687H96.4689H96.4691H96.4692H96.4694H96.4696H96.4698H96.47H96.4702H96.4704H96.4705H96.4707H96.4709H96.4711H96.4713H96.4715H96.4717H96.4718H96.472H96.4722H96.4724H96.4726H96.4728H96.473H96.4731H96.4733H96.4735H96.4737H96.4739H96.4741H96.4742H96.4744H96.4746H96.4748H96.475H96.4752H96.4754H96.4755H96.4757H96.4759H96.4761H96.4763H96.4765H96.4766H96.4768H96.477H96.4772H96.4774H96.4776H96.4777H96.4779H96.4781H96.4783H96.4785H96.4787H96.4788H96.479H96.4792H96.4794H96.4796H96.4798H96.4799H96.4801H96.4803H96.4805H96.4807H96.4808H96.481H96.4812H96.4814H96.4816H96.4818H96.4819H96.4821H96.4823H96.4825H96.4827H96.4828H96.483H96.4832H96.4834H96.4836H96.4838H96.4839H96.4841H96.4843H96.4845H96.4847H96.4848H96.485H96.4852H96.4854H96.4856H96.4857H96.4859H96.4861H96.4863H96.4865H96.4866H96.4868H96.487H96.4872H96.4874H96.4876H96.4877H96.4879H96.4881H96.4883H96.4885H96.4886H96.4888H96.489H96.4892H96.4894H96.4895H96.4897H96.4899H96.4901H96.4903H96.4904H96.4906H96.4908H96.491H96.4912H96.4913H96.4915H96.4917H96.4919H96.4921H96.4922H96.4924H96.4926H96.4928H96.493H96.4931H96.4933H96.4935H96.4937H96.4939H96.494H96.4942H96.4944H96.4946H96.4948H96.4949H96.4951H96.4953H96.4955H96.4957H96.4958H96.496H96.4962H96.4964H96.4966H96.4967H96.4969H96.4971H96.4973H96.4975H96.4976H96.4978H96.498H96.4982H96.4984H96.4985H96.4987H96.4989H96.4991H96.4993H96.4994H96.4996H96.4998H96.5H96.5002H96.5003H96.5005H96.5007H96.5009H96.5011H96.5012H96.5014H96.5016H96.5018H96.502H96.5021H96.5023H96.5025H96.5027H96.5029H96.503H96.5032H96.5034H96.5036H96.5038H96.5039H96.5041H96.5043H96.5045H96.5047H96.5048H96.505H96.5052H96.5054H96.5056H96.5057H96.5059H96.5061H96.5063H96.5065H96.5066H96.5068H96.507H96.5072H96.5074H96.5075H96.5077H96.5079H96.5081H96.5083H96.5085H96.5086H96.5088H96.509H96.5092H96.5094H96.5095H96.5097H96.5099H96.5101H96.5103H96.5104H96.5106H96.5108H96.511H96.5112H96.5114H96.5115H96.5117H96.5119H96.5121H96.5123H96.5124H96.5126H96.5128H96.513H96.5132H96.5134H96.5135H96.5137H96.5139H96.5141H96.5143H96.5145H96.5146H96.5148H96.515H96.5152H96.5154H96.5155H96.5157H96.5158C96.6964 216.64 96.8127 216.475 96.7867 216.296L96.7864 216.294C96.7119 215.762 96.7071 214.684 96.7399 213.364C96.7729 212.032 96.8454 210.422 96.9328 208.805C97.1075 205.574 97.3428 202.303 97.4456 201.143C97.4584 200.952 97.3215 200.792 97.1372 200.774C96.9456 200.761 96.785 200.899 96.7681 201.085L96.3538 216.677ZM97.1241 216.247C97.1786 216.622 96.9195 216.963 96.5445 217.018L97.1241 216.247Z" stroke="#3A88EF" stroke-opacity="0.12" stroke-width="0.681906"/>
<path d="M107.081 298.324C83.7937 297.833 72.5559 316.511 75.7813 343.753C96.8863 339.996 117.35 321.625 107.081 298.324Z" fill="#D8E7FC"/>
<path d="M111.315 279.851C77.9087 259.237 45.6409 276.796 27.0795 319.163C60.9429 331.731 106.351 322.505 111.315 279.851Z" fill="#3A88EF" fill-opacity="0.12"/>
<path d="M37.1649 314.547C36.9194 314.547 36.6875 314.417 36.5648 314.185C36.3875 313.851 36.5102 313.442 36.8444 313.265C48.9755 306.8 65.7981 299.518 80.65 293.087C92.8697 287.796 104.421 282.797 110.995 279.258C111.329 279.081 111.738 279.204 111.915 279.538C112.093 279.872 111.97 280.281 111.636 280.458C105.008 284.025 93.4425 289.037 81.1887 294.342C66.3641 300.759 49.5619 308.035 37.4854 314.472C37.3831 314.526 37.274 314.554 37.1649 314.554V314.547Z" fill="#3A88EF" fill-opacity="0.12"/>
<path d="M318.417 106.784C327.459 83.2785 312.587 64.9966 283.687 58.2866C279.766 81.1305 290.943 108.686 318.417 106.784Z" fill="#E00000" fill-opacity="0.08"/>
<path d="M318.356 110.841C349.519 104.397 358.759 76.098 346.123 40.7889C319.167 52.2245 297.544 82.9375 318.356 110.841Z" fill="#E00000" fill-opacity="0.12"/>
<path d="M318.355 111.523C318.287 111.523 318.212 111.509 318.144 111.489C317.789 111.373 317.592 110.984 317.714 110.63C319.637 104.834 323.668 95.4369 327.936 85.4947C333.098 73.4658 338.949 59.8277 342.488 49.3196C342.611 48.965 342.993 48.774 343.347 48.89C343.702 49.0127 343.893 49.3946 343.777 49.7492C340.224 60.3119 334.36 73.9773 329.184 86.0266C324.929 95.9483 320.906 105.318 319.003 111.052C318.908 111.339 318.642 111.516 318.355 111.516V111.523Z" fill="#E00000" fill-opacity="0.04"/>
<path d="M365.666 269.759C382.837 293.033 371.912 317.793 341.929 334.002C330.637 309.903 334.646 275.999 365.666 269.759Z" fill="#E00000" fill-opacity="0.12"/>
<path d="M346.886 324.659C346.798 324.659 346.702 324.639 346.621 324.605C346.273 324.455 346.116 324.053 346.266 323.712C349.369 316.511 353.03 305.689 356.57 295.228C360.088 284.829 363.73 274.076 366.73 267.195C366.88 266.847 367.282 266.691 367.623 266.841C367.971 266.991 368.128 267.393 367.978 267.734C364.998 274.567 361.37 285.293 357.865 295.665C354.319 306.153 350.651 316.995 347.521 324.25C347.412 324.509 347.159 324.659 346.893 324.659H346.886Z" fill="#E00000" fill-opacity="0.12"/>
<path d="M120.801 259.803C122.083 251.027 118.039 228.381 98.8365 225.565C90.1422 224.29 87.7896 224.467 85.062 226.724C83.289 228.19 82.5389 230.331 80.5 230.127C76.7632 229.759 78.1406 215.773 64.7071 213.127C51.2667 210.481 47.1684 219.578 43.5475 218.821C39.9266 218.064 39.3197 212.295 32.8621 213.345C26.4044 214.395 27.9183 225.033 19.8104 227.529C11.3752 230.127 -1.66282 237.526 0.805679 245.538C3.26736 253.543 9.68409 251.218 14.3415 254.58C18.9989 257.942 23.4654 273.864 35.9306 270.025C48.314 266.213 52.3509 262.988 62.2658 275.828C72.1808 288.675 88.3965 287.421 94.2063 282.006C100.023 276.592 100.548 281.167 98.3728 285.279C96.1907 289.398 103.344 288.893 107.81 285.184C112.277 281.468 119.191 270.809 120.801 259.79V259.803Z" fill="#3A88EF" fill-opacity="0.12"/>
<path d="M124.81 262.408C124.694 262.408 124.578 262.381 124.476 262.32C86.3167 240.533 43.2544 238.187 15.685 243.253C15.3167 243.322 14.9621 243.076 14.8939 242.708C14.8258 242.34 15.0712 241.985 15.4395 241.917C43.2476 236.803 86.6782 239.169 125.151 261.14C125.479 261.324 125.588 261.74 125.404 262.067C125.281 262.285 125.049 262.408 124.81 262.408Z" fill="white"/>
<path d="M39.9948 240.99C39.7698 240.99 39.5516 240.88 39.422 240.676C38.2492 238.862 34.4305 230.843 34.1441 225.469C34.1236 225.094 34.41 224.774 34.7851 224.753C35.1533 224.733 35.4806 225.019 35.5011 225.394C35.7739 230.434 39.4766 238.255 40.5676 239.939C40.7722 240.253 40.6836 240.676 40.3631 240.88C40.2472 240.956 40.1176 240.99 39.9948 240.99Z" fill="white"/>
<path d="M26.9703 252.432C26.8953 252.432 26.8203 252.418 26.7521 252.398C26.3975 252.275 26.2066 251.886 26.3293 251.532C27.0931 249.302 30.7413 242.435 33.012 240.049C33.2711 239.776 33.7007 239.762 33.9735 240.021C34.2463 240.28 34.2599 240.71 34.0008 240.983C31.8801 243.213 28.3341 249.882 27.6181 251.968C27.5227 252.255 27.2567 252.432 26.9772 252.432H26.9703Z" fill="white"/>
<path d="M67.3051 242.858C67.1005 242.858 66.8959 242.769 66.7663 242.592C65.3821 240.785 61.1611 235.289 60.7042 225.176C60.6906 224.801 60.977 224.481 61.352 224.467C61.7202 224.44 62.0476 224.74 62.0612 225.115C62.4499 233.802 65.5457 238.78 67.8438 241.767C68.0756 242.067 68.0142 242.49 67.721 242.722C67.5983 242.817 67.4551 242.865 67.3051 242.865V242.858Z" fill="white"/>
<path d="M46.7456 255.351C46.6365 255.351 46.5274 255.323 46.4251 255.269C46.091 255.091 45.9683 254.682 46.1387 254.348C48.1776 250.502 53.7283 242.06 56.3196 240.362C56.6333 240.158 57.056 240.246 57.2606 240.56C57.4652 240.874 57.3765 241.296 57.0629 241.501C54.7376 243.022 49.3642 251.157 47.3389 254.982C47.2161 255.214 46.9775 255.344 46.7388 255.344L46.7456 255.351Z" fill="white"/>
<path d="M81.025 258.119C80.9159 258.119 80.8068 258.092 80.7046 258.037C80.3704 257.86 80.2477 257.451 80.4182 257.117C80.6977 256.592 80.9841 256.026 81.2842 255.419C82.8662 252.282 84.8369 248.368 87.8236 246.063C88.1237 245.831 88.5465 245.886 88.7783 246.186C89.0102 246.486 88.9556 246.909 88.6556 247.14C85.9143 249.254 84.0186 253.012 82.498 256.026C82.1911 256.633 81.8979 257.212 81.6183 257.744C81.4956 257.976 81.2569 258.105 81.0182 258.105L81.025 258.119Z" fill="white"/>
<path d="M99.7502 250.932C99.5797 250.932 99.4024 250.864 99.2728 250.734C96.2997 247.775 92.9788 240.465 91.8605 234.443C91.7923 234.075 92.0378 233.72 92.406 233.652C92.7743 233.584 93.1288 233.83 93.197 234.198C94.2676 239.987 97.4249 246.977 100.227 249.773C100.493 250.038 100.493 250.468 100.227 250.734C100.098 250.87 99.9206 250.932 99.7433 250.932H99.7502Z" fill="white"/>
<path d="M354.422 263.152C352.464 265.245 356.631 291.853 361.772 291.396C365.775 291.035 365.482 286.78 365.257 285.245C364.896 282.825 363.655 277.056 365.489 277.076C368.81 277.11 370.092 292.092 370.624 295.726C371.162 299.354 373.194 306.262 376.897 307.925C380.6 309.589 382.298 309.835 381.002 303.534C379.707 297.233 375.615 285.136 379.7 287.455C383.791 289.773 384.787 299.899 387.487 305.498C390.187 311.089 397.232 320.827 399.53 316.777C401.589 313.156 391.34 297.936 394.511 297.465C397.047 297.09 398.248 302.266 402.455 309.276C406.662 316.286 410.706 322.866 415.104 320.745C418.637 319.047 414.995 315.126 412.772 311.315C410.549 307.503 407.658 302.082 410.147 302.354C412.636 302.627 421.698 322.307 428.013 320.834C432.193 319.859 428.927 316.272 426.588 311.696C424.255 307.121 423.771 305.334 424.828 305.177C425.885 305.021 430.038 310.687 432.234 313.858C434.43 317.029 438.671 320.827 441.692 318.877C444.719 316.933 440.669 312.215 438.766 310.817C436.864 309.419 435.65 307.284 436.073 306.718C436.496 306.159 443.09 310.319 444.699 306.582C446.308 302.845 439.612 299.483 435.596 300.077C431.579 300.67 426.124 301.338 425.913 299.872C425.694 298.406 430.345 297.717 434.014 297.172C437.682 296.633 439.012 295.576 438.869 294.601C438.385 291.342 433.209 289.303 430.529 289.698C427.849 290.094 413.12 294.274 412.799 292.105C412.479 289.944 418.173 288.955 421.132 288.518C424.092 288.082 431 287.059 430.468 283.425C429.929 279.79 420.335 279.217 414.743 280.397C409.151 281.583 400.246 284.188 400 282.511C399.755 280.833 406.54 277.547 410.14 277.015C413.734 276.483 420.423 277.349 419.762 272.882C419.1 268.409 413.475 268.32 406.417 269.364C403.464 269.8 396.175 270.953 392.581 274.021C388.49 277.512 385.878 278.583 385.019 277.669C383.307 275.855 387.317 273.264 390.597 272.064C393.877 270.864 404.296 267.754 401.575 263.015C398.854 258.283 391.115 262.92 387.814 264.481C384.514 266.043 373.372 272.541 371.933 270.114C370.494 267.686 377.279 265.825 379.325 265.027C381.37 264.222 385.066 261.215 383.409 259.994C381.752 258.774 357.892 259.422 354.408 263.145L354.422 263.152Z" fill="#E00000" fill-opacity="0.12"/>
<path d="M198.072 404.227C198.072 401.159 162.081 398.67 117.689 398.67C73.2967 398.67 37.3057 401.159 37.3057 404.227C37.3057 407.296 73.2967 409.785 117.689 409.785C162.081 409.785 198.072 407.296 198.072 404.227Z" fill="#3A88EF" fill-opacity="0.12"/>
<path opacity="0.7" d="M431.981 376.382C431.981 372.004 359.631 368.458 270.377 368.458C181.122 368.458 108.772 372.004 108.772 376.382C108.772 380.76 181.122 384.306 270.377 384.306C359.631 384.306 431.981 380.76 431.981 376.382Z" fill="#3A88EF" fill-opacity="0.12"/>
<path d="M401.957 112.887C401.957 106.688 396.932 101.669 390.74 101.669H211.03C204.832 101.669 199.813 106.695 199.813 112.887V116.637H401.957V112.887Z" fill="#EEF6FF"/>
<path d="M199.813 116.637V266.309C199.813 272.507 204.839 277.526 211.03 277.526H390.74C396.938 277.526 401.957 272.501 401.957 266.309V116.637H199.813Z" fill="white"/>
<g filter="url(#filter0_ddd_94_6020)">
<path d="M369.644 126.217C369.644 120.019 364.618 115 358.427 115H178.717C172.519 115 167.5 120.026 167.5 126.217V129.968H369.644V126.217Z" fill="#E2EDFC"/>
<path d="M167.5 131.968V281.639C167.5 287.838 172.526 292.857 178.717 292.857H358.427C364.625 292.857 369.644 287.831 369.644 281.639V131.968H167.5Z" fill="white"/>
<path d="M168 281.639V132.468H369.144V281.639C369.144 287.555 364.349 292.357 358.427 292.357H178.717C172.802 292.357 168 287.561 168 281.639Z" stroke="#3A88EF" stroke-opacity="0.04"/>
<path d="M336.439 119H331.561C330.975 119 330.5 119.475 330.5 120.061V124.939C330.5 125.525 330.975 126 331.561 126H336.439C337.025 126 337.5 125.525 337.5 124.939V120.061C337.5 119.475 337.025 119 336.439 119Z" fill="#F08080"/>
<path d="M343.22 126C342.58 126 342.316 125.555 342.636 125.005L345.917 119.412C346.237 118.863 346.763 118.863 347.083 119.412L350.364 125.005C350.684 125.555 350.42 126 349.78 126H343.226H343.22Z" fill="#FFBF2D"/>
<path d="M355.5 122.5C355.5 120.565 357.065 119 359 119C360.935 119 362.5 120.565 362.5 122.5C362.5 124.435 360.935 126 359 126C357.065 126 355.5 124.435 355.5 122.5Z" fill="#8ED68C"/>
</g>
<path d="M356.114 141.546H180.864C178.793 141.546 177.114 143.226 177.114 145.297C177.114 147.368 178.793 149.047 180.864 149.047H356.114C358.185 149.047 359.864 147.368 359.864 145.297C359.864 143.226 358.185 141.546 356.114 141.546Z" fill="#F5F9FE"/>
<path d="M244.58 158.561H200.897C197.519 158.561 194.781 161.299 194.781 164.677V188.585C194.781 191.963 197.519 194.702 200.897 194.702H244.58C247.958 194.702 250.697 191.963 250.697 188.585V164.677C250.697 161.299 247.958 158.561 244.58 158.561Z" fill="#D8E7FC" fill-opacity="0.7"/>
<path d="M337.299 160.948H262.971C261.841 160.948 260.925 161.863 260.925 162.993V164.473C260.925 165.603 261.841 166.519 262.971 166.519H337.299C338.429 166.519 339.345 165.603 339.345 164.473V162.993C339.345 161.863 338.429 160.948 337.299 160.948Z" fill="#D8E7FC" fill-opacity="0.7"/>
<path d="M331.162 174.715H262.289C261.536 174.715 260.925 175.326 260.925 176.079V177.988C260.925 178.741 261.536 179.352 262.289 179.352H331.162C331.915 179.352 332.526 178.741 332.526 177.988V176.079C332.526 175.326 331.915 174.715 331.162 174.715Z" fill="#D8E7FC" fill-opacity="0.7"/>
<path d="M313.432 188.019H262.289C261.536 188.019 260.925 188.63 260.925 189.383V191.292C260.925 192.046 261.536 192.656 262.289 192.656H313.432C314.185 192.656 314.796 192.046 314.796 191.292V189.383C314.796 188.63 314.185 188.019 313.432 188.019Z" fill="#D8E7FC" fill-opacity="0.7"/>
<path d="M244.58 210.386H200.897C197.519 210.386 194.781 213.124 194.781 216.502V240.41C194.781 243.788 197.519 246.527 200.897 246.527H244.58C247.958 246.527 250.697 243.788 250.697 240.41V216.502C250.697 213.124 247.958 210.386 244.58 210.386Z" fill="#D8E7FC" fill-opacity="0.7"/>
<path d="M337.299 212.772H262.971C261.841 212.772 260.925 213.688 260.925 214.818V216.298C260.925 217.428 261.841 218.343 262.971 218.343H337.299C338.429 218.343 339.345 217.428 339.345 216.298V214.818C339.345 213.688 338.429 212.772 337.299 212.772Z" fill="#D8E7FC" fill-opacity="0.7"/>
<path d="M331.162 226.54H262.289C261.536 226.54 260.925 227.151 260.925 227.904V229.813C260.925 230.566 261.536 231.177 262.289 231.177H331.162C331.915 231.177 332.526 230.566 332.526 229.813V227.904C332.526 227.151 331.915 226.54 331.162 226.54Z" fill="#D8E7FC" fill-opacity="0.7"/>
<path d="M313.432 239.844H262.289C261.536 239.844 260.925 240.455 260.925 241.208V243.117C260.925 243.87 261.536 244.481 262.289 244.481H313.432C314.185 244.481 314.796 243.87 314.796 243.117V241.208C314.796 240.455 314.185 239.844 313.432 239.844Z" fill="#D8E7FC" fill-opacity="0.7"/>
<path d="M219.575 155.683C219.111 155.663 218.627 156.195 218.327 157.483H220.713C220.557 156.399 220.079 155.704 219.575 155.683Z" fill="#E19100"/>
<g style="mix-blend-mode:multiply">
<path d="M202.288 160.593V179.775C202.288 185.537 201.961 194.9 197.938 202.871L209.339 195.595L215.422 202.871C219.445 194.9 219.772 185.537 219.772 179.775V160.593C219.772 159.27 219.82 158.124 220.066 157.483H202.582C202.404 158.24 202.295 159.263 202.295 160.593H202.288Z" fill="#F5F9FE"/>
</g>
<path d="M202.172 155.663H202.159H202.097C201.381 155.704 200.618 157.081 200.611 160.566C200.597 164.95 200.577 173.986 200.556 179.748C200.536 185.51 200.188 194.872 196.144 202.83L207.56 195.595L213.622 202.892C217.665 194.934 218.02 185.571 218.034 179.809C218.047 174.047 218.074 165.018 218.088 160.627C218.088 159.304 218.204 158.281 218.381 157.524C218.681 156.236 219.172 155.71 219.636 155.731L202.172 155.67V155.663Z" fill="#FFB4A8"/>
<path d="M208.451 116.986V132.912" stroke="#F08080" stroke-width="2.72762" stroke-miterlimit="10" stroke-linecap="round"/>
<path d="M246.82 132.418L235.592 143.689" stroke="#F08080" stroke-width="2.72762" stroke-miterlimit="10" stroke-linecap="round"/>
<path d="M263.067 170.587H247.202" stroke="#F08080" stroke-width="2.72762" stroke-miterlimit="10" stroke-linecap="round"/>
<path d="M247.694 209.098L236.466 197.827" stroke="#F08080" stroke-width="2.72762" stroke-miterlimit="10" stroke-linecap="round"/>
<path d="M167.787 170.129L176.319 170.242" stroke="#F08080" stroke-width="2.72762" stroke-miterlimit="10" stroke-linecap="round"/>
<path d="M158.306 170.003L161.151 170.041" stroke="#F08080" stroke-width="2.72762" stroke-miterlimit="10" stroke-linecap="round"/>
<path d="M170.432 133.312L181.66 144.567" stroke="#F08080" stroke-width="2.72762" stroke-miterlimit="10" stroke-linecap="round"/>
<path d="M251.546 127.75L250.752 128.547" stroke="#F08080" stroke-width="2.72762" stroke-miterlimit="10" stroke-linecap="round"/>
<g filter="url(#filter1_ddd_94_6020)">
<path d="M217.435 153.933C213.82 153.933 210.701 155.958 209.169 158.91C207.631 155.958 204.512 153.933 200.903 153.933C195.885 153.933 191.803 157.837 191.619 162.715C191.619 171.938 209.169 185.511 209.169 185.511C209.169 185.511 226.719 171.92 226.719 162.715C226.535 157.837 222.458 153.933 217.435 153.933Z" fill="#DE5252"/>
<path d="M209.169 185.511C208.251 186.697 208.251 186.697 208.251 186.697L208.25 186.696L208.247 186.694L208.235 186.685L208.195 186.653C208.159 186.626 208.108 186.585 208.041 186.533C207.908 186.427 207.715 186.273 207.47 186.075C206.98 185.677 206.283 185.102 205.448 184.383C203.78 182.946 201.55 180.929 199.315 178.613C197.086 176.303 194.818 173.662 193.098 170.977C191.401 168.327 190.119 165.453 190.119 162.715C190.119 162.696 190.12 162.678 190.12 162.659C190.335 156.955 195.099 152.433 200.903 152.433C204.222 152.433 207.189 153.912 209.167 156.24C211.143 153.911 214.112 152.433 217.435 152.433C223.245 152.433 228.003 156.955 228.218 162.659C228.218 162.678 228.219 162.696 228.219 162.715C228.219 165.449 226.936 168.321 225.24 170.97C223.52 173.654 221.253 176.296 219.023 178.606C216.788 180.923 214.559 182.942 212.89 184.38C212.055 185.099 211.358 185.676 210.868 186.073C210.624 186.272 210.43 186.427 210.297 186.532C210.231 186.585 210.179 186.625 210.144 186.653L210.103 186.684L210.092 186.693L210.089 186.696L210.088 186.696C210.088 186.697 210.087 186.697 209.169 185.511ZM209.169 185.511L208.251 186.697C208.792 187.115 209.547 187.115 210.087 186.697L209.169 185.511Z" stroke="white" stroke-width="3" stroke-linejoin="round"/>
</g>
<path d="M42.7685 361.182L36.5492 360.015C35.8736 359.89 35.3224 360.563 35.5536 361.233L37.6871 367.391C37.9182 368.057 38.761 368.215 39.2019 367.674L43.2876 362.683C43.7321 362.142 43.4405 361.311 42.7685 361.182Z" fill="#E00000"/>
<mask id="mask0_94_6020" style="mask-type:luminance" maskUnits="userSpaceOnUse" x="185" y="257" width="171" height="36">
<path d="M355.029 257.755H185.916V292.533H355.029V257.755Z" fill="white"/>
</mask>
<g mask="url(#mask0_94_6020)">
<path d="M244.58 264.529H200.897C197.519 264.529 194.781 267.267 194.781 270.645V294.553C194.781 297.931 197.519 300.67 200.897 300.67H244.58C247.958 300.67 250.697 297.931 250.697 294.553V270.645C250.697 267.267 247.958 264.529 244.58 264.529Z" fill="#D8E7FC" fill-opacity="0.7"/>
<path d="M337.299 266.915H262.971C261.841 266.915 260.926 267.831 260.926 268.961V270.441C260.926 271.571 261.841 272.486 262.971 272.486H337.299C338.429 272.486 339.345 271.571 339.345 270.441V268.961C339.345 267.831 338.429 266.915 337.299 266.915Z" fill="#D8E7FC" fill-opacity="0.7"/>
<path d="M331.162 280.683H262.289C261.536 280.683 260.926 281.294 260.926 282.047V283.956C260.926 284.709 261.536 285.32 262.289 285.32H331.162C331.915 285.32 332.526 284.709 332.526 283.956V282.047C332.526 281.294 331.915 280.683 331.162 280.683Z" fill="#D8E7FC" fill-opacity="0.7"/>
</g>
<path d="M76.7531 377.991L95.3554 383.225C95.3554 383.225 124.608 295.705 124.608 296.85C124.608 297.994 124.255 383.225 124.255 383.225L146.282 380.581L151.861 272.959L98.4595 282.783L76.7515 377.991H76.7531Z" fill="#E00000"/>
<path d="M128.825 382.676V390.802H137.647L138.88 381.461L128.825 382.676Z" fill="#F6C4AA"/>
<path d="M128.825 390.802V401.904H153.33C153.33 401.904 153.33 398.556 144.871 395.56C137.568 392.974 137.647 390.802 137.647 390.802H128.825Z" fill="white"/>
<path d="M135.566 396.379C136.512 395.433 136.512 393.899 135.566 392.952C134.62 392.006 133.085 392.006 132.139 392.952C131.192 393.899 131.192 395.433 132.139 396.379C133.085 397.326 134.62 397.326 135.566 396.379Z" fill="#D8E7FC"/>
<path d="M153.33 401.902H128.825V404.663H153.33V401.902Z" fill="#23262A"/>
<path d="M137.647 391.054C137.573 391.054 137.503 391.022 137.454 390.963C137.388 390.884 137.377 390.773 137.425 390.683C137.508 390.526 139.482 386.861 141.196 386.606C141.612 386.543 141.978 386.671 142.291 386.982C142.669 387.36 142.677 387.74 142.617 387.99C142.25 389.521 138.188 390.889 137.726 391.041C137.701 391.049 137.674 391.052 137.647 391.052V391.054ZM141.395 387.095C141.354 387.095 141.312 387.098 141.27 387.105C140.249 387.258 138.918 389.145 138.202 390.336C138.618 390.18 139.195 389.952 139.776 389.676C141.659 388.787 142.055 388.165 142.126 387.873C142.154 387.753 142.165 387.57 141.933 387.337C141.768 387.172 141.595 387.093 141.395 387.093V387.095Z" fill="#23262A"/>
<path d="M142.147 393.934C140.55 393.934 137.797 391.301 137.471 390.981C137.397 390.909 137.376 390.8 137.414 390.706C137.453 390.612 137.545 390.549 137.648 390.549H137.649C137.826 390.549 141.99 390.598 143.011 392C143.258 392.337 143.316 392.722 143.184 393.142C143.024 393.653 142.691 393.837 142.441 393.9C142.348 393.924 142.249 393.936 142.147 393.936V393.934ZM138.317 391.077C138.649 391.374 139.118 391.778 139.633 392.166C141.293 393.421 142.029 393.485 142.318 393.411C142.436 393.381 142.605 393.305 142.703 392.991C142.787 392.724 142.755 392.504 142.604 392.295C141.995 391.46 139.705 391.156 138.317 391.077Z" fill="#23262A"/>
<path d="M133.022 402.154C132.909 402.154 132.808 402.079 132.778 401.966C131.894 398.6 128.758 397.213 128.726 397.2C128.598 397.145 128.54 396.997 128.595 396.869C128.65 396.741 128.798 396.682 128.926 396.738C129.064 396.797 132.319 398.237 133.265 401.84C133.301 401.974 133.22 402.112 133.085 402.148C133.064 402.153 133.042 402.156 133.022 402.156V402.154Z" fill="#23262A"/>
<path d="M146.346 402.154C146.207 402.154 146.094 402.042 146.094 401.902V396.069C146.094 395.929 146.207 395.817 146.346 395.817C146.486 395.817 146.599 395.929 146.599 396.069V401.902C146.599 402.042 146.486 402.154 146.346 402.154Z" fill="#23262A"/>
<path d="M91.4287 382.09L89.0053 390.822H80.184L81.557 379.342L91.4287 382.09Z" fill="#F6C4AA"/>
<path d="M89.0045 390.822V401.924H64.5C64.5 401.924 64.5 398.577 72.9583 395.58C80.2621 392.994 80.1831 390.822 80.1831 390.822H89.0045Z" fill="white"/>
<path d="M84.5227 397.052C85.8253 396.745 86.6321 395.44 86.3246 394.137C86.0172 392.834 84.712 392.028 83.4094 392.335C82.1068 392.642 81.3 393.948 81.6075 395.25C81.9149 396.553 83.2201 397.36 84.5227 397.052Z" fill="#D8E7FC"/>
<path d="M64.5 404.683H89.0045V401.922H64.5V404.683Z" fill="#23262A"/>
<path d="M80.1833 391.074C80.1564 391.074 80.1312 391.071 80.1043 391.062C79.6421 390.911 75.5802 389.543 75.2138 388.012C75.1533 387.76 75.1617 387.382 75.5398 387.004C75.8508 386.693 76.2188 386.565 76.6339 386.627C78.3481 386.883 80.3228 390.55 80.4051 390.704C80.4539 390.795 80.4421 390.906 80.3765 390.985C80.3278 391.042 80.2572 391.076 80.1833 391.076V391.074ZM76.4356 387.115C76.2356 387.115 76.0608 387.194 75.8978 387.358C75.6659 387.59 75.676 387.775 75.7045 387.895C75.7734 388.185 76.1717 388.807 78.054 389.696C78.6355 389.972 79.2119 390.2 79.6287 390.357C78.9144 389.165 77.5834 387.276 76.56 387.125C76.5179 387.118 76.4759 387.115 76.4356 387.115Z" fill="#23262A"/>
<path d="M75.6845 393.955C75.5803 393.955 75.4828 393.943 75.3904 393.919C75.14 393.855 74.8072 393.674 74.6476 393.161C74.5165 392.741 74.5753 392.356 74.8207 392.019C75.8425 390.619 80.0053 390.57 80.1817 390.568H80.1834C80.2859 390.568 80.3784 390.63 80.417 390.725C80.4557 390.82 80.4338 390.93 80.3599 391C80.0322 391.319 77.2811 393.953 75.6845 393.953V393.955ZM79.5145 391.098C78.1281 391.178 75.8374 391.481 75.2274 392.318C75.0761 392.526 75.0442 392.746 75.1282 393.013C75.2257 393.326 75.3954 393.403 75.5131 393.434C75.8038 393.506 76.5382 393.442 78.1987 392.188C78.7129 391.8 79.1818 391.397 79.5145 391.099V391.098Z" fill="#23262A"/>
<path d="M84.8109 402.176C84.7891 402.176 84.7689 402.173 84.7471 402.168C84.6126 402.132 84.532 401.995 84.5673 401.86C85.5134 398.259 88.7687 396.818 88.9065 396.758C89.0342 396.702 89.1821 396.761 89.2376 396.889C89.293 397.017 89.2342 397.165 89.1065 397.22C89.0745 397.233 85.9369 398.628 85.0546 401.986C85.0244 402.099 84.9235 402.174 84.8109 402.174V402.176Z" fill="#23262A"/>
<path d="M71.4835 402.176C71.344 402.176 71.2314 402.063 71.2314 401.924V396.091C71.2314 395.951 71.344 395.839 71.4835 395.839C71.623 395.839 71.7356 395.951 71.7356 396.091V401.924C71.7356 402.063 71.623 402.176 71.4835 402.176Z" fill="#23262A"/>
<path d="M124.608 296.849C124.608 296.849 113.506 299.698 112.096 305.513C110.686 311.327 107.911 345.764 107.911 345.764L124.608 296.849Z" fill="#BA0000"/>
<path d="M98.4584 282.784L151.86 272.959C151.86 272.959 162.668 272.722 159.497 257.4C156.326 242.077 148.571 209.653 148.571 209.653L117.109 213.944C108.081 215.176 100.803 221.955 98.9357 230.874L91.4252 266.748C91.4252 266.748 86.7599 277.676 98.4584 282.785V282.784Z" fill="#FFE5AB"/>
<path d="M121.081 205.676L119.587 213.604L131.461 211.985L130.069 205.676H121.081Z" fill="#F6C4AA"/>
<path d="M137.189 198.35C138.121 192.609 134.223 187.2 128.482 186.268C122.741 185.337 117.332 189.235 116.4 194.976C115.468 200.716 119.367 206.126 125.107 207.057C130.848 207.989 136.257 204.091 137.189 198.35Z" fill="#F6C4AA"/>
<path d="M181.576 189.48C182.912 187.724 184.196 182.349 186.255 179.845C188.306 177.343 197.766 170.406 199.227 171.468C200.56 172.437 193.733 176.832 192.978 178.253C194.098 179.525 197.993 184.402 195.675 186.695C193.357 188.988 191.761 190.586 189.875 191.057C188.348 191.438 186.746 193.869 186.746 193.869L181.576 189.48Z" fill="#F6C4AA"/>
<path d="M137.705 211.852L165.017 206.742L179.996 186.124L192.155 193.173L183.349 212.805C179.904 220.485 173.067 226.112 164.868 228.014L142.716 233.155L137.705 211.851V211.852Z" fill="#FFE5AB"/>
<path d="M98.9369 230.872L88.2064 245.63C84.6957 250.46 85.2856 257.141 89.5896 261.28L92.0718 263.668L98.9369 230.872Z" fill="#FFCC57"/>
<path d="M153.389 230.68C153.389 230.68 150.863 223.398 156.561 223.516C162.904 223.647 175.937 222.543 175.937 222.543C175.937 222.543 171.391 226.326 166.954 227.445C162.517 228.564 153.39 230.682 153.39 230.682L153.389 230.68Z" fill="#FFCC57"/>
<path d="M113.289 191.103C116.253 191.103 118.655 188.7 118.655 185.736C118.655 182.773 116.253 180.37 113.289 180.37C110.326 180.37 107.923 182.773 107.923 185.736C107.923 188.7 110.326 191.103 113.289 191.103Z" fill="#23262A"/>
<path d="M124.437 206.349C130.253 206.349 134.967 201.634 134.967 195.818C134.967 190.002 130.253 185.288 124.437 185.288C118.621 185.288 113.906 190.002 113.906 195.818C113.906 201.634 118.621 206.349 124.437 206.349Z" fill="#23262A"/>
<path d="M134.126 200.726C135.248 199.603 135.248 197.784 134.126 196.662C133.003 195.539 131.184 195.539 130.061 196.662C128.939 197.784 128.939 199.603 130.061 200.726C131.184 201.848 133.003 201.848 134.126 200.726Z" fill="#F6C4AA"/>
<path d="M137.319 196.116C138.139 196.116 138.804 195.45 138.804 194.63C138.804 193.809 138.139 193.144 137.319 193.144C136.498 193.144 135.833 193.809 135.833 194.63C135.833 195.45 136.498 196.116 137.319 196.116Z" fill="#F6C4AA"/>
<path d="M133.476 199.566C133.409 199.566 133.344 199.539 133.293 199.487L131.278 197.373C131.182 197.272 131.186 197.112 131.287 197.016C131.387 196.92 131.547 196.924 131.643 197.025L133.658 199.139C133.754 199.24 133.75 199.399 133.649 199.495C133.601 199.542 133.538 199.564 133.475 199.564L133.476 199.566Z" fill="#23262A"/>
<path d="M131.009 199.038C130.906 199.038 130.809 198.974 130.772 198.871C130.725 198.74 130.792 198.596 130.923 198.549L132.382 198.019C132.513 197.972 132.657 198.04 132.705 198.171C132.752 198.302 132.684 198.446 132.553 198.493L131.095 199.023C131.066 199.033 131.037 199.038 131.009 199.038Z" fill="#23262A"/>
<path d="M130.272 206.596C130.272 206.596 129.112 206.714 127.191 207.186C125.282 207.655 126.789 210.863 131.461 211.986L130.272 206.596Z" fill="#F2A680"/>
<path d="M141.077 381.206C141.077 381.206 142.848 362.063 147.354 359.868L146.28 380.581L141.077 381.206Z" fill="#BA0000"/>
<path d="M81.5566 379.342L90.8922 384.021L91.4283 382.09L81.5566 379.342Z" fill="#F2A680"/>
<path d="M128.825 382.676V384.537L138.88 381.461L128.825 382.676Z" fill="#F2A680"/>
<path d="M447.215 222.218L449.444 223.437L447.215 224.656L445.996 226.885L444.776 224.656L442.548 223.437L444.776 222.218L445.996 219.989L447.215 222.218Z" fill="#FAD5D5"/>
<path d="M445.996 227.222C445.873 227.222 445.759 227.155 445.7 227.047L444.528 224.905L442.386 223.733C442.278 223.674 442.211 223.56 442.211 223.437C442.211 223.314 442.278 223.2 442.386 223.141L444.528 221.969L445.7 219.827C445.759 219.719 445.873 219.652 445.996 219.652C446.12 219.652 446.233 219.719 446.292 219.827L447.464 221.969L449.606 223.141C449.714 223.2 449.781 223.314 449.781 223.437C449.781 223.56 449.714 223.674 449.606 223.733L447.464 224.905L446.292 227.047C446.233 227.155 446.12 227.222 445.996 227.222ZM443.251 223.437L444.939 224.36C444.996 224.391 445.042 224.438 445.073 224.495L445.997 226.183L446.92 224.495C446.951 224.438 446.998 224.391 447.054 224.36L448.743 223.437L447.054 222.514C446.998 222.483 446.951 222.436 446.92 222.379L445.997 220.691L445.073 222.379C445.042 222.436 444.996 222.483 444.939 222.514L443.251 223.437Z" fill="#FAD5D5"/>
<path d="M426.504 213.566L428.733 214.785L426.504 216.004L425.285 218.233L424.065 216.004L421.837 214.785L424.065 213.566L425.285 211.337L426.504 213.566Z" fill="#FAD5D5"/>
<path d="M425.285 218.57C425.162 218.57 425.048 218.503 424.989 218.395L423.818 216.253L421.675 215.081C421.567 215.022 421.5 214.909 421.5 214.785C421.5 214.662 421.567 214.548 421.675 214.489L423.818 213.318L424.989 211.175C425.048 211.067 425.162 211 425.285 211C425.409 211 425.522 211.067 425.581 211.175L426.753 213.318L428.895 214.489C429.003 214.548 429.07 214.662 429.07 214.785C429.07 214.909 429.003 215.022 428.895 215.081L426.753 216.253L425.581 218.395C425.522 218.503 425.409 218.57 425.285 218.57ZM422.54 214.785L424.228 215.709C424.285 215.74 424.331 215.786 424.363 215.843L425.286 217.531L426.209 215.843C426.24 215.786 426.287 215.74 426.343 215.709L428.032 214.785L426.343 213.862C426.287 213.831 426.24 213.784 426.209 213.728L425.286 212.039L424.363 213.728C424.331 213.784 424.285 213.831 424.228 213.862L422.54 214.785Z" fill="#FAD5D5"/>
<path d="M431.711 239.476L435.809 241.718L431.711 243.958L429.47 248.057L427.228 243.958L423.131 241.718L427.228 239.476L429.47 235.378L431.711 239.476Z" fill="#E00000"/>
<path d="M429.468 248.677C429.242 248.677 429.033 248.553 428.924 248.355L426.77 244.416L422.832 242.262C422.633 242.153 422.509 241.945 422.509 241.718C422.509 241.491 422.633 241.283 422.832 241.174L426.77 239.02L428.924 235.081C429.033 234.883 429.242 234.759 429.468 234.759C429.695 234.759 429.904 234.883 430.013 235.081L432.167 239.02L436.105 241.174C436.304 241.283 436.428 241.491 436.428 241.718C436.428 241.945 436.304 242.153 436.105 242.262L432.167 244.416L430.013 248.355C429.904 248.553 429.695 248.677 429.468 248.677ZM424.421 241.718L427.525 243.416C427.629 243.473 427.715 243.558 427.772 243.662L429.47 246.766L431.167 243.662C431.224 243.558 431.31 243.473 431.414 243.416L434.518 241.718L431.414 240.02C431.31 239.963 431.224 239.878 431.167 239.774L429.47 236.67L427.772 239.774C427.715 239.878 427.629 239.963 427.525 240.02L424.421 241.718Z" fill="#E00000"/>
<path d="M135.214 78.0289L129.081 79.306C128.599 79.4072 128.211 79.7617 128.057 80.2399L126.07 86.3326C125.916 86.8108 126.02 87.334 126.343 87.7109L130.488 92.5267C130.811 92.9036 131.304 93.0724 131.786 92.9711L137.919 91.694C138.401 91.5928 138.789 91.2383 138.943 90.7601L140.93 84.6674C141.084 84.1892 140.98 83.666 140.657 83.289L136.512 78.4733C136.189 78.0964 135.69 77.9276 135.214 78.0289Z" fill="#3A88EF" fill-opacity="0.04"/>
<path d="M113.789 79.7137L116.626 82.0773C116.849 82.2627 117.14 82.3206 117.391 82.2296L120.61 81.0862C120.861 80.9953 121.034 80.772 121.064 80.4981L121.446 76.9911C121.476 76.7172 121.358 76.436 121.135 76.2506L118.298 73.887C118.075 73.7016 117.784 73.6437 117.532 73.7347L114.314 74.8781C114.062 74.9691 113.89 75.1924 113.86 75.4663L113.478 78.9733C113.448 79.2471 113.568 79.5308 113.789 79.7137Z" fill="#3A88EF" fill-opacity="0.04"/>
<path d="M126.486 70.508C126.562 70.6468 126.708 70.7335 126.867 70.7335C127.025 70.7335 127.171 70.6468 127.247 70.508L128.754 67.7538L131.508 66.2475C131.647 66.1711 131.734 66.0254 131.734 65.8667C131.734 65.7081 131.647 65.5624 131.508 65.486L128.754 63.9797L127.247 61.2255C127.171 61.0867 127.025 61 126.867 61C126.708 61 126.562 61.0867 126.486 61.2255L124.98 63.9797L122.225 65.486C122.087 65.5624 122 65.7081 122 65.8667C122 66.0254 122.087 66.1711 122.225 66.2475L124.98 67.7538L126.486 70.508Z" fill="#3A88EF" fill-opacity="0.04"/>
</g>
<defs>
<filter id="filter0_ddd_94_6020" x="157.5" y="106" width="222.144" height="197.857" filterUnits="userSpaceOnUse" color-interpolation-filters="sRGB">
<feFlood flood-opacity="0" result="BackgroundImageFix"/>
<feColorMatrix in="SourceAlpha" type="matrix" values="0 0 0 0 0 0 0 0 0 0 0 0 0 0 0 0 0 0 127 0" result="hardAlpha"/>
<feOffset dy="1"/>
<feGaussianBlur stdDeviation="5"/>
<feColorMatrix type="matrix" values="0 0 0 0 0 0 0 0 0 0 0 0 0 0 0 0 0 0 0.04 0"/>
<feBlend mode="normal" in2="BackgroundImageFix" result="effect1_dropShadow_94_6020"/>
<feColorMatrix in="SourceAlpha" type="matrix" values="0 0 0 0 0 0 0 0 0 0 0 0 0 0 0 0 0 0 127 0" result="hardAlpha"/>
<feOffset dy="3"/>
<feGaussianBlur stdDeviation="4"/>
<feColorMatrix type="matrix" values="0 0 0 0 0 0 0 0 0 0 0 0 0 0 0 0 0 0 0.02 0"/>
<feBlend mode="normal" in2="effect1_dropShadow_94_6020" result="effect2_dropShadow_94_6020"/>
<feColorMatrix in="SourceAlpha" type="matrix" values="0 0 0 0 0 0 0 0 0 0 0 0 0 0 0 0 0 0 127 0" result="hardAlpha"/>
<feMorphology radius="2" operator="erode" in="SourceAlpha" result="effect3_dropShadow_94_6020"/>
<feOffset dy="4"/>
<feGaussianBlur stdDeviation="4"/>
<feColorMatrix type="matrix" values="0 0 0 0 0 0 0 0 0 0 0 0 0 0 0 0 0 0 0.02 0"/>
<feBlend mode="normal" in2="effect2_dropShadow_94_6020" result="effect3_dropShadow_94_6020"/>
<feBlend mode="normal" in="SourceGraphic" in2="effect3_dropShadow_94_6020" result="shape"/>
</filter>
<filter id="filter1_ddd_94_6020" x="181.301" y="143.615" width="55.7356" height="58.7144" filterUnits="userSpaceOnUse" color-interpolation-filters="sRGB">
<feFlood flood-opacity="0" result="BackgroundImageFix"/>
<feColorMatrix in="SourceAlpha" type="matrix" values="0 0 0 0 0 0 0 0 0 0 0 0 0 0 0 0 0 0 127 0" result="hardAlpha"/>
<feOffset dy="7"/>
<feGaussianBlur stdDeviation="3.40953"/>
<feColorMatrix type="matrix" values="0 0 0 0 0 0 0 0 0 0 0 0 0 0 0 0 0 0 0.06 0"/>
<feBlend mode="normal" in2="BackgroundImageFix" result="effect1_dropShadow_94_6020"/>
<feColorMatrix in="SourceAlpha" type="matrix" values="0 0 0 0 0 0 0 0 0 0 0 0 0 0 0 0 0 0 127 0" result="hardAlpha"/>
<feOffset/>
<feGaussianBlur stdDeviation="1.70476"/>
<feColorMatrix type="matrix" values="0 0 0 0 0 0 0 0 0 0 0 0 0 0 0 0 0 0 0.07 0"/>
<feBlend mode="normal" in2="effect1_dropShadow_94_6020" result="effect2_dropShadow_94_6020"/>
<feColorMatrix in="SourceAlpha" type="matrix" values="0 0 0 0 0 0 0 0 0 0 0 0 0 0 0 0 0 0 127 0" result="hardAlpha"/>
<feMorphology radius="0.681906" operator="erode" in="SourceAlpha" result="effect3_dropShadow_94_6020"/>
<feOffset/>
<feGaussianBlur stdDeviation="4"/>
<feColorMatrix type="matrix" values="0 0 0 0 0 0 0 0 0 0 0 0 0 0 0 0 0 0 0.1 0"/>
<feBlend mode="normal" in2="effect2_dropShadow_94_6020" result="effect3_dropShadow_94_6020"/>
<feBlend mode="normal" in="SourceGraphic" in2="effect3_dropShadow_94_6020" result="shape"/>
</filter>
<clipPath id="clip0_94_6020">
<rect width="460" height="414" fill="white" transform="translate(0.5)"/>
</clipPath>
</defs>
</svg>
