<svg width="14" height="14" viewBox="0 0 14 14" fill="none" xmlns="http://www.w3.org/2000/svg">
<path d="M6.55358 10.334H7.55358V6.33398H6.55358V10.334ZM7.00358 5.10065C7.15914 5.10065 7.28969 5.05065 7.39525 4.95065C7.5008 4.85065 7.55358 4.72287 7.55358 4.56732C7.55358 4.41176 7.5008 4.27843 7.39525 4.16732C7.28969 4.05621 7.15914 4.00065 7.00358 4.00065C6.84802 4.00065 6.71747 4.05621 6.61191 4.16732C6.50636 4.27843 6.45358 4.41176 6.45358 4.56732C6.45358 4.72287 6.50636 4.85065 6.61191 4.95065C6.71747 5.05065 6.84802 5.10065 7.00358 5.10065V5.10065ZM7.00358 13.6673C6.09247 13.6673 5.23136 13.4923 4.42025 13.1423C3.60914 12.7923 2.9008 12.3145 2.29525 11.709C1.68969 11.1034 1.21191 10.3951 0.861914 9.58398C0.511914 8.77287 0.336914 7.90621 0.336914 6.98398C0.336914 6.07287 0.511914 5.21176 0.861914 4.40065C1.21191 3.58954 1.68969 2.88398 2.29525 2.28398C2.9008 1.68398 3.60914 1.20898 4.42025 0.858984C5.23136 0.508984 6.09802 0.333984 7.02025 0.333984C7.93136 0.333984 8.79247 0.508984 9.60358 0.858984C10.4147 1.20898 11.1202 1.68398 11.7202 2.28398C12.3202 2.88398 12.7952 3.58954 13.1452 4.40065C13.4952 5.21176 13.6702 6.07843 13.6702 7.00065C13.6702 7.91176 13.4952 8.77287 13.1452 9.58398C12.7952 10.3951 12.3202 11.1034 11.7202 11.709C11.1202 12.3145 10.4147 12.7923 9.60358 13.1423C8.79247 13.4923 7.9258 13.6673 7.00358 13.6673ZM7.02025 12.6673C8.58691 12.6673 9.92025 12.1145 11.0202 11.009C12.1202 9.90343 12.6702 8.56176 12.6702 6.98398C12.6702 5.41732 12.1202 4.08398 11.0202 2.98398C9.92025 1.88398 8.58136 1.33398 7.00358 1.33398C5.43691 1.33398 4.1008 1.88398 2.99525 2.98398C1.88969 4.08398 1.33691 5.42287 1.33691 7.00065C1.33691 8.56732 1.88969 9.90343 2.99525 11.009C4.1008 12.1145 5.44247 12.6673 7.02025 12.6673Z" fill="#A3A6AA"/>
</svg>
