<svg width="18" height="18" viewBox="0 0 18 18" fill="none" xmlns="http://www.w3.org/2000/svg">
  <path d="M7.875 5.875C7.875 5.73693 7.98693 5.625 8.125 5.625H12.6875C12.8256 5.625 12.9375 5.73693 12.9375 5.875V6.5C12.9375 6.63807 12.8256 6.75 12.6875 6.75H8.125C7.98693 6.75 7.875 6.63807 7.875 6.5V5.875ZM14.25 2.25H3.75C2.925 2.25 2.25 2.925 2.25 3.75V14.25C2.25 15.075 2.925 15.75 3.75 15.75H14.25C15.075 15.75 15.75 15.075 15.75 14.25V3.75C15.75 2.925 15.075 2.25 14.25 2.25ZM14.25 14C14.25 14.1381 14.1381 14.25 14 14.25H4C3.86193 14.25 3.75 14.1381 3.75 14V4C3.75 3.86193 3.86193 3.75 4 3.75H14C14.1381 3.75 14.25 3.86193 14.25 4V14ZM6.75 6.5C6.75 6.63807 6.63807 6.75 6.5 6.75H5.5C5.36193 6.75 5.25 6.63807 5.25 6.5V5.875C5.25 5.73693 5.36193 5.625 5.5 5.625H6.5C6.63807 5.625 6.75 5.73693 6.75 5.875V6.5Z" fill="#666B72"/>
  <path d="M12.6562 8.4375H8.15625C8.00092 8.4375 7.875 8.56342 7.875 8.71875V9.28125C7.875 9.43658 8.00092 9.5625 8.15625 9.5625H12.6562C12.8116 9.5625 12.9375 9.43658 12.9375 9.28125V8.71875C12.9375 8.56342 12.8116 8.4375 12.6562 8.4375Z" fill="#666B72"/>
  <path d="M5.53125 9.5625H6.46875C6.62408 9.5625 6.75 9.43658 6.75 9.28125V8.71875C6.75 8.56342 6.62408 8.4375 6.46875 8.4375H5.53125C5.37592 8.4375 5.25 8.56342 5.25 8.71875V9.28125C5.25 9.43658 5.37592 9.5625 5.53125 9.5625Z" fill="#666B72"/>
  <path d="M12.6555 11.25H8.15552C8.00019 11.25 7.87427 11.3759 7.87427 11.5312V12.0938C7.87427 12.2491 8.00019 12.375 8.15552 12.375H12.6555C12.8108 12.375 12.9368 12.2491 12.9368 12.0938V11.5312C12.9368 11.3759 12.8108 11.25 12.6555 11.25Z" fill="#666B72"/>
  <path d="M5.53052 12.375H6.46802C6.62335 12.375 6.74927 12.2491 6.74927 12.0938V11.5312C6.74927 11.3759 6.62335 11.25 6.46802 11.25H5.53052C5.37519 11.25 5.24927 11.3759 5.24927 11.5312V12.0938C5.24927 12.2491 5.37519 12.375 5.53052 12.375Z" fill="#666B72"/>
</svg>
