<svg width="18" height="18" viewBox="0 0 18 18" fill="none" xmlns="http://www.w3.org/2000/svg">
  <path fill-rule="evenodd" clip-rule="evenodd" d="M4.99212 2.85087C6.54479 1.96198 8.39987 1.62236 10.2046 1.88819C12.0095 2.15404 13.6568 3.01002 14.8226 4.31099C15.9905 5.61421 16.5915 7.27258 16.4887 8.96843C16.3928 10.5515 15.6915 12.0389 14.5297 13.1876L14.7152 15.4699C14.7343 15.7051 14.6318 15.9336 14.4435 16.0757C14.2552 16.2179 14.0073 16.2538 13.7864 16.1709L11.0279 15.1365C9.37309 15.6245 7.8432 15.4885 6.24171 14.915C4.53769 14.3049 3.12526 13.145 2.29303 11.638C1.45909 10.1278 1.27377 8.38622 1.78028 6.75424C2.28597 5.12494 3.43832 3.74041 4.99212 2.85087ZM10.0038 3.25163C8.49571 3.0295 6.9537 3.3159 5.67684 4.04689C4.40111 4.77724 3.4908 5.89233 3.0965 7.16275C2.70304 8.4305 2.8438 9.78445 3.49945 10.9717C4.1568 12.1621 5.29253 13.1114 6.70627 13.6175C8.14676 14.1333 9.42716 14.2156 10.8336 13.7537C10.9825 13.7047 11.1437 13.7081 11.2905 13.7631L13.2536 14.4993L13.1292 12.9691C13.1118 12.7545 13.1957 12.544 13.356 12.4002C14.4168 11.4492 15.0337 10.1953 15.1131 8.88506C15.1924 7.57544 14.7311 6.2739 13.7963 5.23074C12.8595 4.18533 11.5117 3.47374 10.0038 3.25163Z" fill="#666B72"/>
  <path d="M5.83394 7.64793C5.83394 7.26737 6.14245 6.95885 6.52302 6.95885H11.4769C11.8575 6.95885 12.166 7.26737 12.166 7.64793C12.166 8.0285 11.8575 8.33701 11.4769 8.33701H6.52302C6.14245 8.33701 5.83394 8.0285 5.83394 7.64793Z" fill="#666B72"/>
  <path d="M5.83394 10.2552C5.83394 9.87465 6.14245 9.56614 6.52302 9.56614H9.61456C9.99513 9.56614 10.3036 9.87465 10.3036 10.2552C10.3036 10.6358 9.99513 10.9443 9.61456 10.9443H6.52302C6.14245 10.9443 5.83394 10.6358 5.83394 10.2552Z" fill="#666B72"/>
</svg>
