<svg width="19" height="18" viewBox="0 0 19 18" fill="none" xmlns="http://www.w3.org/2000/svg">
  <g clip-path="url(#clip0_343_1438)">
  <path d="M12.92 2.2C11.5976 2.2 10.3284 2.81182 9.50002 3.77866C8.67163 2.81182 7.40242 2.2 6.08002 2.2C3.73922 2.2 1.90002 4.02792 1.90002 6.35436C1.90002 9.20953 4.48402 11.536 8.39803 15.0709L8.74956 15.3866C9.17603 15.7695 9.82291 15.7683 10.2479 15.3838L10.602 15.0634C14.516 11.536 17.1 9.20953 17.1 6.35436C17.1 4.02792 15.2608 2.2 12.92 2.2ZM9.57603 13.9455L9.50002 14.021L9.42402 13.9455C5.80642 10.69 3.42002 8.53728 3.42002 6.35436C3.42002 4.84368 4.56002 3.71067 6.08002 3.71067C7.00274 3.71067 7.90655 4.17545 8.44514 4.87922C8.70463 5.21829 9.07442 5.49327 9.50139 5.49327C9.93078 5.49327 10.302 5.21507 10.5627 4.87386C11.0981 4.17309 11.9997 3.71067 12.92 3.71067C14.44 3.71067 15.58 4.84368 15.58 6.35436C15.58 8.53728 13.1936 10.69 9.57603 13.9455Z" fill="#666B72"/>
  </g>
  <defs>
  <clipPath id="clip0_343_1438">
  <rect width="18" height="18" fill="white" transform="translate(0.5)"/>
  </clipPath>
  </defs>
</svg>
