<svg width="19" height="18" viewBox="0 0 19 18" fill="none" xmlns="http://www.w3.org/2000/svg">
  <path fill-rule="evenodd" clip-rule="evenodd" d="M5.98835 2.85449C6.91971 1.92313 8.1829 1.3999 9.50004 1.3999C10.8172 1.3999 12.0804 1.92313 13.0117 2.85449C13.9431 3.78585 14.4663 5.04905 14.4663 6.36619V10.6293C14.4663 10.846 14.6108 11.1348 14.9743 11.405C15.3308 11.6699 15.7787 11.821 16.1316 11.821H16.6053C16.9936 11.821 17.3084 12.1358 17.3084 12.5241C17.3084 12.9124 16.9936 13.2272 16.6053 13.2272H12.0979V13.9451C12.0979 14.6341 11.8242 15.2949 11.337 15.7821C10.8498 16.2693 10.189 16.543 9.50004 16.543C8.81104 16.543 8.15027 16.2693 7.66307 15.7821C7.17588 15.2949 6.90218 14.6341 6.90218 13.9451V13.2272H2.39478C2.00645 13.2272 1.69165 12.9124 1.69165 12.5241C1.69165 12.1358 2.00645 11.821 2.39478 11.821H3.34214C3.65818 11.821 3.96127 11.6954 4.18474 11.4719C4.40821 11.2485 4.53376 10.9454 4.53376 10.6293V6.36619C4.53376 5.04905 5.05699 3.78585 5.98835 2.85449ZM5.6506 11.821H13.4426C13.2131 11.4823 13.0601 11.0812 13.0601 10.6293V6.36619C13.0601 5.42201 12.685 4.5165 12.0174 3.84886C11.3497 3.18123 10.4442 2.80615 9.50004 2.80615C8.55586 2.80615 7.65035 3.18123 6.98272 3.84886C6.31508 4.5165 5.94001 5.42201 5.94001 6.36619V10.6293C5.94001 11.0478 5.83904 11.4559 5.6506 11.821ZM8.30843 13.2272V13.9451C8.30843 14.2612 8.43397 14.5643 8.65744 14.7877C8.88091 15.0112 9.184 15.1367 9.50004 15.1367C9.81608 15.1367 10.1192 15.0112 10.3426 14.7877C10.5661 14.5643 10.6917 14.2612 10.6917 13.9451V13.2272H8.30843Z" fill="#666B72"/>
</svg>
