<svg width="19" height="18" viewBox="0 0 19 18" fill="none" xmlns="http://www.w3.org/2000/svg">
  <g clip-path="url(#clip0_343_1523)">
    <path d="M13.3038 9.35104V14.4459L8.80222 12.1957L4.30059 14.4459V4.00045H6.56641C6.58478 3.73963 6.62475 3.586 6.68367 3.34045C6.74505 3.08462 6.82701 2.83756 6.92654 2.60027H4.30059C3.47529 2.60027 2.80005 3.27535 2.80005 4.10044V14.6016C2.80005 15.4267 2.80005 16.4769 4.30059 16.1018L8.80222 13.8516L13.3038 16.1018C14.8044 16.4769 14.8044 15.4267 14.8044 14.6016V10.8512L13.3038 9.35104ZM14.2792 6.26819C14.6093 5.74313 14.8044 5.13556 14.8044 4.47548C14.8044 2.60777 13.2963 1.1001 11.4282 1.1001C9.55999 1.1001 8.05195 2.60777 8.05195 4.47548C8.05195 6.3432 9.55999 7.85087 11.4207 7.85087C12.0809 7.85087 12.6961 7.65585 13.2138 7.32581L15.0225 9.13407C15.3164 9.42791 15.7929 9.42791 16.0868 9.13407C16.3811 8.8398 16.3808 8.36249 16.0859 8.06869L14.2792 6.26819ZM11.4282 6.3507C10.3928 6.3507 9.55249 5.5106 9.55249 4.47548C9.55249 3.44036 10.3928 2.60027 11.4282 2.60027C12.4635 2.60027 13.3038 3.44036 13.3038 4.47548C13.3038 5.5106 12.4635 6.3507 11.4282 6.3507Z" fill="#23262A"/>
  </g>
  <defs>
    <clipPath id="clip0_343_1523">
      <rect width="18" height="18" fill="white" transform="translate(0.5)"/>
    </clipPath>
  </defs>
</svg>
