<svg xmlns="http://www.w3.org/2000/svg" xmlns:xlink="http://www.w3.org/1999/xlink" width="109" height="117"><defs><rect id="a" width="84" height="84" rx="42"/><rect id="g" width="2" height="2" rx="1"/><rect id="i" width="4" height="4" rx="2"/><rect id="k" width="2" height="2" rx="1"/><linearGradient id="d" x1="0%" x2="0%" y1="0%" y2="812.698%"><stop offset="0%" stop-color="#4294FF"/><stop offset="100%" stop-color="#06BB00"/></linearGradient><linearGradient id="f" x1="50%" x2="50%" y1="-27.104%" y2="149.224%"><stop offset="0%" stop-color="#4294FF"/><stop offset="100%" stop-color="#06BB00"/></linearGradient><path id="c" d="M79 23.091V42.92c0 3.943-3.221 7.168-7.159 7.168H55.25v40.38a60.33 60.33 0 01-15.75 2.079 60.47 60.47 0 01-13.115-1.431V77.382H9.06C4.077 77.382 0 73.3 0 68.312V43.215c0-4.988 4.077-9.07 9.06-9.07 4.982 0 9.059 4.082 9.059 9.07V59.24h8.266V14.45C26.385 6.502 32.88 0 40.817 0 48.755 0 55.25 6.502 55.25 14.45v21.303h9.434V23.09c0-3.943 3.22-7.168 7.158-7.168S79 19.148 79 23.09z"/></defs><g fill="none" fill-rule="evenodd"><mask id="b" fill="#fff"><use xlink:href="#a"/></mask><use fill="#2B2D2E" xlink:href="#a"/><g fill="#F6F7F8" mask="url(#b)"><path d="M0 0h84v84H0z"/></g><g transform="translate(30 17)"><mask id="e" fill="#fff"><use xlink:href="#c"/></mask><path fill="url(#d)" d="M0 100.154h79V0H0z" mask="url(#e)"/></g><path fill="url(#f)" d="M26.385 59.15H18.12v-16c0-4.981-4.077-9.057-9.06-9.057-4.983 0-9.06 4.076-9.06 9.057v25.056c0 4.981 4.077 9.057 9.06 9.057h17.325v17.713h-4.17a2.52 2.52 0 00-2.513 2.512A2.52 2.52 0 0022.156 100h37.05a2.52 2.52 0 002.454-2.51 2.52 2.52 0 00-2.513-2.513h5-8.898V50.011H71.84c3.938 0 7.159-3.22 7.159-7.157V23.056c0-3.937-3.221-7.158-7.159-7.158-3.938 0-7.158 3.221-7.158 7.158v12.642h-9.434v-21.27C55.249 6.492 48.755 0 40.817 0 32.88 0 26.385 6.492 26.385 14.428v44.721z" transform="translate(30 17)"/><g transform="translate(15 46)"><mask id="h" fill="#fff"><use xlink:href="#g"/></mask><use fill="#2B2D2E" xlink:href="#g"/><g fill="#4294FF" mask="url(#h)"><path d="M0 0h2v2H0z"/></g></g><g transform="translate(36 13)"><mask id="j" fill="#fff"><use xlink:href="#i"/></mask><use fill="#2B2D2E" xlink:href="#i"/><g fill="#4294FF" mask="url(#j)"><path d="M0 0h4v4H0z"/></g></g><g transform="translate(92 18)"><mask id="l" fill="#fff"><use xlink:href="#k"/></mask><use fill="#2B2D2E" xlink:href="#k"/><g fill="#4294FF" mask="url(#l)"><path d="M0 0h2v2H0z"/></g></g></g></svg>