<svg
    width="16"
    height="16"
    viewBox="0 0 16 16"
    fill="none"
    xmlns="http://www.w3.org/2000/svg"
  >
  <g clipPath="url(#clip0_1392_11258)">
    <path
      d="M7.99996 14.668C8.73329 14.668 9.33329 14.068 9.33329 13.3346H6.66663C6.66663 14.068 7.26663 14.668 7.99996 14.668ZM12 10.668V7.33464C12 5.28797 10.9133 3.57464 8.99996 3.1213V2.66797C8.99996 2.11464 8.55329 1.66797 7.99996 1.66797C7.44663 1.66797 6.99996 2.11464 6.99996 2.66797V3.1213C5.09329 3.57464 3.99996 5.2813 3.99996 7.33464V10.668L2.66663 12.0013V12.668H13.3333V12.0013L12 10.668ZM10.6666 11.3346H5.33329V7.33464C5.33329 5.6813 6.33996 4.33464 7.99996 4.33464C9.65996 4.33464 10.6666 5.6813 10.6666 7.33464V11.3346Z"
      fill="#23262A"
    />
  </g>
  <defs>
    <clipPath id="clip0_1392_11258">
      <rect width="16" height="16" fill="white" />
    </clipPath>
  </defs>
</svg>
