<svg width="56" height="56" viewBox="0 0 56 56" fill="none" xmlns="http://www.w3.org/2000/svg">
<g clip-path="url(#clip0_949_67878)">
<path d="M30.4558 7.7937H25.0633C24.8342 7.7937 24.6484 7.97942 24.6484 8.20852C24.6484 8.43761 24.8342 8.62333 25.0633 8.62333H30.4558C30.6849 8.62333 30.8707 8.43761 30.8707 8.20852C30.8707 7.97942 30.6849 7.7937 30.4558 7.7937Z" fill="#333333"/>
<path d="M28.4853 46.5789H27.0335C26.5753 46.5789 26.2039 46.9503 26.2039 47.4085C26.2039 47.8667 26.5753 48.2381 27.0335 48.2381H28.4853C28.9435 48.2381 29.315 47.8667 29.315 47.4085C29.315 46.9503 28.9435 46.5789 28.4853 46.5789Z" fill="#333333"/>
<path d="M40.1666 38.5859V43.1239H15.3399V12.0502H40.1583V15.7835H41.8175V7.14705C41.8175 6.35164 41.5016 5.58881 40.9391 5.02637C40.3767 4.46392 39.6138 4.14795 38.8184 4.14795H16.6756C15.8809 4.14905 15.1192 4.46551 14.5576 5.02784C13.9961 5.59016 13.6807 6.35236 13.6807 7.14705V48.8525C13.6807 49.6472 13.9961 50.4094 14.5576 50.9718C15.1192 51.5341 15.8809 51.8506 16.6756 51.8517H38.8184C39.6138 51.8517 40.3767 51.5357 40.9391 50.9732C41.5016 50.4108 41.8175 49.6479 41.8175 48.8525V38.5859H40.1666ZM15.3399 7.14705C15.3399 6.79242 15.4805 6.45224 15.7309 6.20109C15.9813 5.94993 16.321 5.80831 16.6756 5.80721H38.8184C39.1738 5.80721 39.5146 5.94837 39.7658 6.19964C40.0171 6.45091 40.1583 6.7917 40.1583 7.14705V10.3909H15.3399V7.14705ZM40.1583 48.8525C40.1583 49.2079 40.0171 49.5487 39.7658 49.8C39.5146 50.0512 39.1738 50.1924 38.8184 50.1924H16.6756C16.321 50.1913 15.9813 50.0496 15.7309 49.7985C15.4805 49.5473 15.3399 49.2072 15.3399 48.8525V44.7832H40.1583V48.8525Z" fill="#333333"/>
<rect x="17.8372" y="14.5183" width="19.9111" height="4.97778" rx="0.82963" fill="#EA5656"/>
<rect x="17.8372" y="21.1553" width="19.9111" height="4.97778" rx="0.82963" fill="#E0E1E3"/>
<rect x="17.8372" y="27.7922" width="19.9111" height="4.97778" rx="0.82963" fill="#E0E1E3"/>
<g clip-path="url(#clip1_949_67878)">
<path d="M41.274 35.9841C42.2436 35.9841 43.037 35.1907 43.037 34.2211H39.5111C39.5111 35.1907 40.3044 35.9841 41.274 35.9841ZM46.5629 30.6952V26.2878C46.5629 23.5816 45.1261 21.3162 42.5962 20.7168V20.1174C42.5962 19.3858 42.0057 18.7952 41.274 18.7952C40.5424 18.7952 39.9518 19.3858 39.9518 20.1174V20.7168C37.4308 21.3162 35.9851 23.5728 35.9851 26.2878V30.6952L34.2222 32.4581V33.3396H48.3259V32.4581L46.5629 30.6952ZM44.7999 31.5766H37.7481V26.2878C37.7481 24.1017 39.0791 22.3211 41.274 22.3211C43.4689 22.3211 44.7999 24.1017 44.7999 26.2878V31.5766Z" fill="#323232"/>
</g>
</g>
<defs>
<clipPath id="clip0_949_67878">
<rect width="37.3001" height="47.7037" fill="white" transform="translate(13.689 4.14819)"/>
</clipPath>
<clipPath id="clip1_949_67878">
<rect width="21.1556" height="21.1556" fill="white" transform="translate(30.6963 16.5916)"/>
</clipPath>
</defs>
</svg>
