<svg width="16" height="16" viewBox="0 0 16 16" fill="none" xmlns="http://www.w3.org/2000/svg">
<g clip-path="url(#clip0_1392_10927)">
<path d="M12 10.7187C11.4933 10.7187 11.04 10.9187 10.6933 11.232L5.94 8.46536C5.97333 8.31203 6 8.1587 6 7.9987C6 7.8387 5.97333 7.68536 5.94 7.53203L10.64 4.79203C11 5.12536 11.4733 5.33203 12 5.33203C13.1067 5.33203 14 4.4387 14 3.33203C14 2.22536 13.1067 1.33203 12 1.33203C10.8933 1.33203 10 2.22536 10 3.33203C10 3.49203 10.0267 3.64536 10.06 3.7987L5.36 6.5387C5 6.20537 4.52667 5.9987 4 5.9987C2.89333 5.9987 2 6.89203 2 7.9987C2 9.10536 2.89333 9.9987 4 9.9987C4.52667 9.9987 5 9.79203 5.36 9.4587L10.1067 12.232C10.0733 12.372 10.0533 12.5187 10.0533 12.6654C10.0533 13.7387 10.9267 14.612 12 14.612C13.0733 14.612 13.9467 13.7387 13.9467 12.6654C13.9467 11.592 13.0733 10.7187 12 10.7187ZM12 2.66536C12.3667 2.66536 12.6667 2.96536 12.6667 3.33203C12.6667 3.6987 12.3667 3.9987 12 3.9987C11.6333 3.9987 11.3333 3.6987 11.3333 3.33203C11.3333 2.96536 11.6333 2.66536 12 2.66536ZM4 8.66536C3.63333 8.66536 3.33333 8.36537 3.33333 7.9987C3.33333 7.63203 3.63333 7.33203 4 7.33203C4.36667 7.33203 4.66667 7.63203 4.66667 7.9987C4.66667 8.36537 4.36667 8.66536 4 8.66536ZM12 13.3454C11.6333 13.3454 11.3333 13.0454 11.3333 12.6787C11.3333 12.312 11.6333 12.012 12 12.012C12.3667 12.012 12.6667 12.312 12.6667 12.6787C12.6667 13.0454 12.3667 13.3454 12 13.3454Z" fill="#23262A"/>
</g>
<defs>
<clipPath id="clip0_1392_10927">
<rect width="16" height="16" fill="white"/>
</clipPath>
</defs>
</svg>
