<svg xmlns="http://www.w3.org/2000/svg" width="16" height="16" viewBox="0 0 16 16">
    <g fill="none" fill-rule="evenodd">
        <path fill="#F7BABA" stroke="#E00000" stroke-linecap="square" stroke-width="1.3" d="M3.25 3.9h0c-1.077 0-1.95-.873-1.95-1.95S2.173 0 3.25 0 5.2.873 5.2 1.95 4.327 3.9 3.25 3.9z" transform="translate(.65 .65)"/>
        <path fill="#FFF" stroke="#E00000" stroke-linecap="square" stroke-width="1.3" d="M4.55 13.65h-2.6c-.359 0-.65-.291-.65-.65v-2.6h0-.65c-.359 0-.65-.291-.65-.65v-2.6h0c0-.718.582-1.3 1.3-1.3h3.9c.718 0 1.3.582 1.3 1.3v2.6c0 .359-.291.65-.65.65H5.2h0V13c0 .359-.291.65-.65.65z" transform="translate(.65 .65)"/>
        <path stroke="#E00000" stroke-linecap="round" stroke-width="1.3" d="M3.25 5.85L3.25 8.45" transform="translate(.65 .65)"/>
        <path fill="#F7BABA" stroke="#E00000" stroke-linecap="square" stroke-width="1.3" d="M10.725 3.9h0c-1.077 0-1.95-.873-1.95-1.95S9.648 0 10.725 0s1.95.873 1.95 1.95-.873 1.95-1.95 1.95z" transform="translate(.65 .65)"/>
        <path stroke="#E00000" stroke-linecap="round" stroke-width="1.3" d="M8.775 5.85h3.9c.718 0 1.3.582 1.3 1.3v2.6c0 .359-.291.65-.65.65h-.65 0V13c0 .359-.291.65-.65.65h-2.6c-.36 0-.65-.291-.65-.65v-2.6h0" transform="translate(.65 .65)"/>
        <path fill="#E00000" d="M11.375 8.45c0 .359-.291.65-.65.65-.359 0-.65-.291-.65-.65 0-.359.291-.65.65-.65.359 0 .65.291.65.65" transform="translate(.65 .65)"/>
    </g>
</svg>
