<svg width="18" height="18" viewBox="0 0 18 18" fill="none" xmlns="http://www.w3.org/2000/svg">
<path opacity="0.8" d="M15.5281 9.87707C15.3399 9.87707 15.1431 9.81718 14.9549 9.7744C14.5737 9.69041 14.1991 9.5789 13.8341 9.44074C13.4372 9.29635 13.0009 9.30385 12.6092 9.46179C12.2175 9.61974 11.8981 9.91697 11.7123 10.2963L11.5241 10.6813C10.6908 10.2177 9.92509 9.64199 9.24837 8.97019C8.57657 8.29347 8.00083 7.52773 7.53727 6.69443L7.8966 6.45488C8.27592 6.26916 8.57315 5.94971 8.7311 5.558C8.88904 5.1663 8.89654 4.73002 8.75215 4.33312C8.61631 3.96731 8.50484 3.5929 8.41849 3.21236C8.37571 3.02414 8.34149 2.82736 8.31582 2.63058C8.21193 2.02795 7.89628 1.48222 7.42573 1.09166C6.95517 0.7011 6.36064 0.491381 5.74918 0.500271H3.18254C2.81382 0.496809 2.44869 0.572833 2.112 0.723168C1.77531 0.873502 1.47496 1.09462 1.2314 1.37146C0.987845 1.6483 0.806797 1.97437 0.700584 2.32748C0.594371 2.68058 0.565486 3.05242 0.615895 3.41769C1.07168 7.0019 2.70859 10.3321 5.26806 12.8823C7.82754 15.4325 11.1637 17.0573 14.7495 17.5H15.0746C15.7055 17.5009 16.3147 17.2695 16.7857 16.8498C17.0564 16.6077 17.2726 16.3109 17.4201 15.9791C17.5676 15.6473 17.643 15.2879 17.6413 14.9248V12.3582C17.6308 11.7639 17.4144 11.1917 17.029 10.7392C16.6436 10.2867 16.1131 9.98198 15.5281 9.87707ZM15.9559 15.0104C15.9557 15.1318 15.9297 15.2519 15.8795 15.3625C15.8294 15.4732 15.7562 15.5718 15.665 15.652C15.5697 15.735 15.4579 15.797 15.337 15.8338C15.2161 15.8707 15.0888 15.8816 14.9634 15.8659C11.7593 15.4551 8.78315 13.9892 6.50438 11.6996C4.22562 9.41002 2.77394 6.42694 2.37832 3.22091C2.36471 3.09559 2.37664 2.96881 2.4134 2.84823C2.45016 2.72765 2.51099 2.61577 2.59221 2.51936C2.67238 2.4281 2.77107 2.35496 2.88171 2.30481C2.99235 2.25465 3.1124 2.22863 3.23387 2.22848H5.80051C5.99947 2.22405 6.19374 2.28912 6.3499 2.41248C6.50605 2.53584 6.61432 2.70978 6.65606 2.90436C6.69028 3.13821 6.73306 3.36921 6.78439 3.59735C6.88322 4.04835 7.01476 4.49155 7.17794 4.92345L5.98018 5.47956C5.87777 5.52654 5.78565 5.5933 5.7091 5.67599C5.63256 5.75867 5.57311 5.85567 5.53416 5.9614C5.4952 6.06713 5.47752 6.17951 5.48212 6.29209C5.48672 6.40467 5.51351 6.51524 5.56096 6.61743C6.79226 9.25488 8.91235 11.375 11.5498 12.6063C11.7581 12.6918 11.9917 12.6918 12.2 12.6063C12.3067 12.5681 12.4048 12.5091 12.4885 12.4327C12.5722 12.3564 12.6399 12.2641 12.6877 12.1614L13.2181 10.9636C13.6604 11.1218 14.1118 11.2532 14.5699 11.3572C14.798 11.4085 15.029 11.4513 15.2629 11.4855C15.4574 11.5272 15.6314 11.6355 15.7547 11.7917C15.8781 11.9478 15.9432 12.1421 15.9387 12.341L15.9559 15.0104Z" fill="#E50000"/>
</svg>
