<svg width="18" height="18" viewBox="0 0 18 18" fill="none" xmlns="http://www.w3.org/2000/svg">
<path d="M8.99166 0.666687C7.54277 0.667754 6.11963 1.04972 4.86493 1.77429C3.61023 2.49886 2.56808 3.54057 1.84297 4.79495C1.11786 6.04933 0.735274 7.47231 0.733581 8.9212C0.731888 10.3701 1.11115 11.7939 1.83332 13.05L0.666656 17.3334L5.04166 16.1834C6.14674 16.7842 7.37447 17.1248 8.63118 17.179C9.88789 17.2332 11.1404 16.9997 12.2931 16.4963C13.4459 15.9929 14.4684 15.2328 15.2828 14.2741C16.0971 13.3154 16.6817 12.1834 16.992 10.9644C17.3024 9.7454 17.3302 8.47163 17.0733 7.24025C16.8165 6.00886 16.2819 4.8524 15.5101 3.85907C14.7384 2.86574 13.75 2.06179 12.6203 1.50854C11.4907 0.955283 10.2495 0.667345 8.99166 0.666687ZM8.99999 2.05835C10.8211 2.05946 12.5673 2.78397 13.8542 4.0725C15.1412 5.36103 15.8636 7.10803 15.8625 8.92919C15.8614 10.7503 15.1369 12.4965 13.8483 13.7834C12.5598 15.0704 10.8128 15.7928 8.99166 15.7917C7.76221 15.7962 6.55488 15.4648 5.49999 14.8334L5.24999 14.6917L2.64999 15.375L3.34166 12.8417L3.17499 12.575C2.52277 11.5352 2.16115 10.3396 2.12777 9.11261C2.09439 7.88562 2.39047 6.67212 2.98519 5.59838C3.57992 4.52464 4.45155 3.62992 5.50937 3.00734C6.5672 2.38475 7.77255 2.05706 8.99999 2.05835ZM6.06666 5.10835C5.96215 5.11131 5.85938 5.13578 5.76475 5.18023C5.67012 5.22468 5.58566 5.28815 5.51666 5.36669C5.28487 5.58981 5.10103 5.85787 4.97637 6.15447C4.85171 6.45106 4.78886 6.76997 4.79166 7.09169C4.86294 7.8671 5.15181 8.6066 5.62499 9.22502C6.5179 10.5491 7.73792 11.6198 9.16666 12.3334C9.54757 12.5077 9.94019 12.6553 10.3417 12.775C10.7628 12.9026 11.2077 12.9311 11.6417 12.8584C11.9291 12.7998 12.2012 12.6821 12.4408 12.5129C12.6803 12.3436 12.8821 12.1264 13.0333 11.875C13.1696 11.5663 13.2131 11.2246 13.1583 10.8917C13.1 10.8084 12.9667 10.7584 12.7583 10.6667C12.55 10.55 11.5333 10.05 11.35 9.98335C11.1667 9.91669 11.0417 9.88335 10.8833 10.0834C10.75 10.2917 10.35 10.7584 10.2333 10.8917C10.1167 11.025 9.99166 11.05 9.79166 10.95C9.18062 10.7081 8.61657 10.3612 8.12499 9.92502C7.67371 9.50597 7.28627 9.02306 6.97499 8.49169C6.93541 8.42335 6.92287 8.34266 6.93984 8.26554C6.9568 8.18841 7.00205 8.12044 7.06666 8.07502C7.1799 7.962 7.28307 7.83931 7.37499 7.70835C7.46285 7.60677 7.53325 7.49131 7.58332 7.36669C7.61005 7.31015 7.62251 7.24792 7.6196 7.18545C7.6167 7.12297 7.59852 7.06217 7.56666 7.00835C7.51666 6.91669 7.09999 5.88335 6.92499 5.47502C6.74999 5.06669 6.59166 5.12502 6.45832 5.11669C6.34166 5.11669 6.20832 5.10835 6.06666 5.10835Z" fill="#1DAD18"/>
</svg>
