<?xml version="1.0" encoding="utf-8"?>
<!-- Generator: Adobe Illustrator 25.3.1, SVG Export Plug-In . SVG Version: 6.00 Build 0)  -->
<svg version="1.1" id="图层_1" xmlns="http://www.w3.org/2000/svg" xmlns:xlink="http://www.w3.org/1999/xlink" x="0px" y="0px"
	 viewBox="0 0 200 200" style="enable-background:new 0 0 200 200;" xml:space="preserve">
<style type="text/css">
	.st0{fill:#FF0000;}
</style>
<path class="st0" d="M145.1,121.7c-4.9-4.8-12.7-4.8-17.6,0l-8.8,8.8c-5,5-21.1,0-35.2-14.1s-19-30.2-14.1-35.2l0,0l8.8-8.8
	c4.8-4.9,4.8-12.7,0-17.6L39.6,16.2c-4.9-4.8-12.7-4.8-17.6,0L13.3,25c-6.5,6.5-10.4,15-11.8,25.4c-1.2,9.6-0.1,20.4,3.3,32
	c6.9,23.4,22.3,47.9,43.6,69.2s45.8,36.7,69.2,43.6c8.6,2.5,16.7,3.8,24.3,3.8c2.6,0,5.2-0.2,7.7-0.5c10.4-1.3,18.9-5.3,25.4-11.8
	l8.8-8.8c4.8-4.9,4.8-12.7,0-17.6L145.1,121.7z M176.7,170.9l-8.8,8.8c-9.9,9.9-26.8,12-47.6,5.9c-21.8-6.4-44.8-21-64.9-41.1
	s-34.7-43.1-41.1-64.9C8.3,58.9,10.4,42,20.3,32l8.8-8.8c1-1,2.5-1,3.5,0c0,0,0,0,0,0l38.7,38.7c1,1,1,2.5,0,3.5c0,0,0,0,0,0
	l-8.8,8.8c-5.2,5.2-6.2,13.4-2.9,23.3c2.9,8.7,8.9,17.9,17,25.9s17.3,14.1,25.9,17c3.8,1.3,7.3,1.9,10.5,1.9c5.2,0,9.5-1.6,12.7-4.8
	l8.8-8.8c1-1,2.5-1,3.5,0c0,0,0,0,0,0l38.7,38.7C177.7,168.3,177.7,169.9,176.7,170.9C176.7,170.9,176.7,170.9,176.7,170.9
	L176.7,170.9z M114.9,35.4c0-2.7,2.2-5,5-5c27.5,0,49.7,22.3,49.7,49.7c0,2.7-2.2,5-5,5c-2.7,0-5-2.2-5-5
	c0-21.9-17.8-39.8-39.8-39.8C117.1,40.4,114.9,38.2,114.9,35.4L114.9,35.4z M114.9,65.2c0-2.7,2.2-5,5-5c11,0,19.9,8.9,19.9,19.9
	c0,2.7-2.2,5-5,5s-5-2.2-5-5c0-5.5-4.5-9.9-9.9-9.9C117.1,70.2,114.9,68,114.9,65.2L114.9,65.2z M199.4,80.2c0,2.7-2.2,5-5,5
	s-5-2.2-5-5c0-38.4-31.2-69.6-69.6-69.6c-2.7,0-5-2.2-5-5s2.2-5,5-5c43.9,0,79.5,35.5,79.5,79.4C199.4,80.1,199.4,80.1,199.4,80.2z"
	/>
</svg>
