<svg xmlns="http://www.w3.org/2000/svg" width="19" height="18" viewBox="0 0 19 18">
    <g fill="none" fill-rule="evenodd" stroke="#E00000" stroke-linecap="round" stroke-linejoin="round" stroke-width="1.3">
        <g>
            <path d="M0 .264h.47c1.297 0 2.348.912 2.348 2.039v.815h-.47C1.051 3.118 0 2.205 0 1.08V.264zM6.763 1.405H6.2c-1.557 0-2.818.913-2.818 2.04v.815h.563c1.557 0 2.818-.913 2.818-2.039v-.816zM6.377 6.12l-.469.032c-1.294.092-2.28 1.077-2.202 2.2l.056.814.469-.033c1.294-.092 2.28-1.077 2.202-2.2l-.056-.814zM1.041 10.163H4.683V12.798H1.041z" transform="translate(0 1) translate(11.008)"/>
            <path d="M3.05 3.336L2.837 9.739" transform="translate(0 1) translate(11.008) rotate(-1.909 2.943 6.538)"/>
        </g>
        <g>
            <path d="M2.432 11.7L2.432 10.4M10.232 11.7L10.232 10.4" transform="translate(0 1) translate(.168 3.9)"/>
            <path fill="#F7BABA" d="M10.882 6.5V1.333C10.882.597 10.373 0 9.745 0H2.92c-.628 0-1.138.597-1.138 1.333V6.5M3.732 5.85L9.582 5.85" transform="translate(0 1) translate(.168 3.9)"/>
            <path fill="#F7BABA" d="M10.79 3.907c-.77 0-1.393.632-1.393 1.411v2.823H3.268V5.318c.003-.664-.452-1.241-1.092-1.385-.64-.143-1.293.186-1.567.79-.273.604-.094 1.32.43 1.718v2.83c0 .623.5 1.129 1.115 1.129h8.357c.615 0 1.114-.506 1.114-1.13V6.442c.48-.363.675-.998.486-1.573-.19-.576-.723-.963-1.322-.961h0z" transform="translate(0 1) translate(.168 3.9)"/>
        </g>
    </g>
</svg>
