
<svg xmlns="http://www.w3.org/2000/svg" width="16" height="16" viewBox="0 0 24 24" stroke="#e00000" stroke-width="2"><path d="M23 10v12c0 .3-.1.5-.3.7s-.4.3-.7.3h-3V10c0-.3.1-.5.3-.7s.4-.3.7-.3h2c.3 0 .5.1.7.3s.3.4.3.7z" fill="#f7baba"/><path d="M19 13h1m-15-.5V4h14v17.3c0 .9-.9 1.7-2 1.7H7m11-6h1m-2 3h2M9 7h1m-1 3h1m4-3h1m-1 3h1M4 13h15M4 19v4" fill="none" stroke-linecap="round"/><path d="M14 23v-5c0-1.1-.9-2-2-2h0c-1.1 0-2 .9-2 2v5h4zM3 16h2c1.1 0 2 .9 2 2h0c0 1.1-.9 2-2 2H3c-1.1 0-2-.9-2-2h0c0-1.1.9-2 2-2zm16.5 1H23M4 1h16a.94.94 0 0 1 1 1v1a.94.94 0 0 1-1 1H4a.94.94 0 0 1-1-1V2a.94.94 0 0 1 1-1z" fill="#f7baba" stroke-linecap="square"/></svg>
